<?xml version="1.0" encoding="utf-8"?>
<!-- Generator: Adobe Illustrator 16.0.0, SVG Export Plug-In . SVG Version: 6.00 Build 0)  -->
<!DOCTYPE svg PUBLIC "-//W3C//DTD SVG 1.1//EN" "http://www.w3.org/Graphics/SVG/1.1/DTD/svg11.dtd">
<svg version="1.1" id="Layer_1" xmlns="http://www.w3.org/2000/svg" xmlns:xlink="http://www.w3.org/1999/xlink" x="0px" y="0px"
	 width="612px" height="792px" viewBox="0 0 612 792" enable-background="new 0 0 612 792" xml:space="preserve">
<polyline fill="#008332" stroke="#FFFFFF" stroke-linecap="round" stroke-linejoin="round" stroke-miterlimit="10" points="
	265.995,648.45 267.384,648.187 269.816,648.187 272.943,647.395 276.07,647.395 279.544,646.865 281.282,646.865 281.977,646.338 
	284.06,646.338 286.839,646.074 311.156,668.527 317.759,667.47 329.569,665.621 330.611,665.621 351.805,662.716 353.887,677.243 
	355.622,693.885 356.318,698.112 356.665,699.697 356.665,701.81 357.012,703.396 357.707,709.471 358.054,710.527 358.749,714.753 
	358.749,716.603 359.445,724.264 360.14,725.319 360.486,731.132 361.529,736.943 361.529,739.585 361.876,742.49 362.917,750.414 
	364.309,760.188 365.351,766.792 365.697,772.604 366.046,776.831 367.086,783.698 353.541,783.434 344.854,782.905 
	333.737,782.641 325.4,782.377 316.366,782.377 311.504,781.848 302.124,781.848 301.083,781.585 292.05,781.585 287.187,781.056 
	284.06,781.056 278.849,780.794 276.418,780.794 259.743,780.528 259.396,780.528 245.151,779.999 243.066,779.999 242.72,779.734 
	234.035,779.734 234.035,779.472 231.603,760.452 231.256,758.339 230.908,754.64 230.213,751.208 229.171,744.866 225.699,716.073 
	225.699,713.697 239.939,698.64 238.9,693.885 238.205,691.244 237.856,687.017 237.51,682.263 236.468,677.243 236.12,675.396 
	236.12,672.752 235.425,669.32 235.079,668.79 234.729,664.564 234.729,662.978 234.035,660.866 233.688,656.903 232.993,656.11 
	243.762,656.11 243.762,653.206 243.066,651.094 242.72,648.45 242.72,646.865 241.678,642.374 241.678,641.583 242.72,642.374 
	244.457,643.167 245.151,643.432 246.542,643.96 246.542,644.227 247.931,644.488 249.322,644.488 251.058,645.017 252.446,645.81 
	254.532,645.81 256.269,646.074 256.962,646.338 256.962,646.865 258.701,648.187 260.091,648.979 260.785,649.243 263.564,648.979 
	264.953,648.45 265.995,648.45 "/>
<g id="Sheffield">
	<polygon fill="#008332" stroke="#FFFFFF" stroke-linecap="round" stroke-linejoin="round" stroke-miterlimit="10" points="
		223.961,779.734 220.834,779.207 217.36,779.207 202.075,778.679 199.991,778.679 191.653,778.414 181.232,778.414 
		180.883,778.151 169.767,777.622 150.314,777.358 148.925,777.358 131.901,777.094 117.659,776.831 108.975,776.038 
		95.427,776.038 83.961,776.038 86.393,771.282 86.393,770.491 87.782,764.414 92.993,741.696 95.773,733.508 101.332,717.396 
		92.298,698.112 90.213,694.15 86.741,687.81 85.699,686.223 94.384,686.223 102.025,686.223 118.7,686.223 118.006,684.112 
		118.006,682.263 117.659,680.414 117.659,679.622 116.615,674.602 116.268,670.903 115.573,668.527 125.65,665.621 
		130.511,663.771 130.163,661.13 135.724,661.13 135.377,658.225 134.682,655.318 139.543,655.849 174.63,655.849 180.536,655.849 
		209.371,655.849 214.929,656.11 232.993,656.11 233.688,657.168 234.035,661.13 234.729,663.243 234.729,664.83 235.079,669.056 
		235.425,669.32 236.12,673.017 236.12,675.659 236.468,677.243 237.51,682.263 237.856,687.282 238.205,691.508 238.9,694.15 
		239.939,698.905 225.699,713.962 225.699,716.338 229.171,745.132 230.213,751.208 230.908,754.904 231.256,758.604 
		231.603,760.717 234.035,779.734 234.035,779.999 	"/>
</g>
<g id="Mount_Washington">
	<polygon fill="#008332" stroke="#FFFFFF" stroke-linecap="round" stroke-linejoin="round" stroke-miterlimit="10" points="
		86.393,770.491 86.393,771.282 83.961,776.038 81.876,776.038 51.653,776.831 34.632,776.831 29.767,777.094 19.346,777.094 
		16.915,769.169 16.566,767.585 12.746,754.904 12.052,753.585 12.052,753.585 7.536,737.734 7.536,736.943 7.883,735.094 
		16.566,710.527 17.957,707.092 18.65,704.715 19.346,703.659 19.346,703.396 21.779,696.263 22.473,694.15 23.515,691.244 
		23.515,690.188 26.293,682.263 26.989,680.678 27.684,678.302 27.684,678.302 30.811,670.11 33.589,661.923 33.937,661.13 
		41.232,664.037 41.579,664.037 42.621,664.83 45.054,665.885 45.749,666.678 48.875,669.32 52,671.696 55.475,675.396 
		58.255,678.302 61.033,680.678 61.729,680.678 63.119,682.263 66.938,685.697 71.457,690.188 75.972,694.15 83.961,701.81 
		92.298,698.112 101.332,717.396 95.773,733.508 92.993,741.696 87.782,764.414 	"/>
</g>
<g id="Great_Barrington">
	<polyline fill="#008332" stroke="#FFFFFF" stroke-linecap="round" stroke-linejoin="round" stroke-miterlimit="10" points="
		199.991,547.809 223.267,547.809 228.824,548.336 251.058,548.336 258.004,548.601 290.313,548.601 284.06,555.732 284.06,556.261 
		280.585,560.487 277.808,564.187 276.418,565.507 274.333,568.412 273.986,568.939 272.597,570.791 269.816,573.96 
		267.037,577.923 264.953,580.035 261.132,585.053 256.269,590.865 252.446,595.62 251.752,596.676 246.889,603.017 
		244.457,605.922 243.762,606.979 243.066,607.243 242.025,608.828 240.636,610.413 240.636,619.658 240.287,624.412 
		240.287,630.225 240.636,632.337 240.636,635.244 241.331,638.677 241.678,640.263 241.678,642.64 242.72,646.865 242.72,648.45 
		243.066,651.357 243.762,653.206 243.762,656.11 214.929,656.11 209.371,655.849 180.536,655.849 174.63,655.849 139.543,655.849 
		134.682,655.318 114.185,655.318 113.838,653.997 113.838,651.357 113.49,650.564 113.49,647.923 112.448,642.903 111.405,632.603 
		111.058,628.902 111.058,627.582 110.363,625.999 108.28,626.526 108.28,620.715 108.975,620.449 109.668,619.921 108.975,615.96 
		108.975,614.11 108.627,612.789 108.28,602.225 108.28,589.545 107.584,583.732 127.039,583.732 126.692,578.979 124.605,570.791 
		123.217,562.072 122.522,556.261 120.437,547.015 148.23,547.015 149.619,546.751 150.314,547.015 174.63,547.015 180.883,547.545 
		193.737,547.545 199.991,547.809 	"/>
</g>
<g id="Monterey">
	<polyline fill="#008332" stroke="#FFFFFF" stroke-linecap="round" stroke-linejoin="round" stroke-miterlimit="10" points="
		265.995,648.45 264.953,648.45 263.564,649.243 260.785,649.243 260.091,649.243 258.701,648.187 256.962,646.865 256.962,646.604 
		256.269,646.074 254.532,645.81 252.446,645.81 251.058,645.281 249.322,644.488 247.931,644.488 246.542,644.227 246.542,643.96 
		245.151,643.432 244.457,643.167 242.72,642.64 241.678,641.583 241.678,640.263 241.331,638.677 240.636,635.244 240.636,632.337 
		240.287,630.225 240.287,624.412 240.636,619.658 240.636,610.413 242.025,608.828 243.066,607.243 243.762,606.979 
		244.457,605.922 246.889,603.017 251.752,596.676 252.446,595.62 256.269,590.865 261.132,585.053 264.953,580.035 
		267.037,577.923 269.816,573.96 272.597,570.791 273.986,568.939 274.333,568.412 276.418,565.507 279.196,567.092 
		281.628,568.148 283.017,568.939 284.06,569.204 308.378,580.827 328.177,590.601 331.652,592.451 336.863,594.827 
		340.686,596.676 375.771,613.847 377.508,614.64 377.508,619.13 378.201,632.073 378.201,634.714 375.771,642.903 372.993,652.413 
		373.34,658.487 358.749,659.81 351.455,660.339 351.805,662.978 330.611,665.885 329.569,665.885 317.759,667.733 311.156,668.79 
		286.839,646.074 284.06,646.604 281.977,646.604 281.282,646.865 279.544,646.865 276.07,647.395 272.943,647.395 269.816,648.187 
		267.384,648.187 265.995,648.45 	"/>
</g>
<g id="Otis">
	<polygon fill="#008332" stroke="#FFFFFF" stroke-linecap="round" stroke-linejoin="round" stroke-miterlimit="10" points="
		378.201,634.714 378.201,632.073 377.508,619.13 377.508,608.299 378.201,597.469 378.201,577.923 378.551,559.167 
		379.939,559.167 399.047,556.261 415.721,554.147 417.459,554.147 418.153,553.619 421.281,553.619 421.976,554.147 
		421.976,555.204 419.891,556.525 419.891,558.11 419.544,558.11 419.891,558.374 420.237,559.695 421.281,560.487 421.976,562.338 
		422.322,562.601 422.322,563.129 421.976,563.922 422.322,563.922 427.881,563.394 431.356,563.129 436.913,562.338 
		438.302,562.338 440.735,562.072 448.378,561.545 449.072,561.545 450.461,561.279 452.197,561.279 452.197,562.601 
		452.547,565.241 454.283,573.694 462.622,572.375 466.441,572.11 467.832,572.11 473.737,571.317 475.82,571.054 479.295,570.791 
		483.117,570.261 491.103,569.469 493.191,569.204 502.573,568.148 507.434,567.356 507.781,567.356 511.95,567.092 
		512.645,571.317 520.287,570.791 525.846,570.261 528.277,570.261 533.488,569.997 534.531,569.469 542.867,568.939 
		542.521,570.791 540.089,578.186 537.311,588.487 536.962,590.865 536.962,591.395 536.269,592.451 533.835,601.432 
		522.719,640.263 522.719,641.319 520.983,647.923 520.287,649.772 520.287,650.828 519.594,652.413 518.203,656.903 
		516.813,661.923 516.813,662.45 516.466,663.771 516.466,664.037 515.077,669.056 514.383,671.696 514.033,672.752 
		514.033,673.546 511.603,673.017 511.255,673.017 507.781,672.752 507.434,672.752 505.003,672.489 503.958,672.489 
		500.834,671.696 498.402,671.696 492.498,670.376 486.591,669.848 483.464,669.32 483.117,669.32 478.255,668.79 475.127,668.527 
		475.475,669.056 475.82,670.376 475.82,672.489 474.433,673.017 474.433,673.811 475.127,675.659 475.475,676.452 475.82,676.979 
		475.82,677.243 475.127,677.243 472.347,677.771 470.263,678.302 467.832,678.83 465.4,678.302 464.704,671.432 464.01,667.205 
		463.664,664.83 463.315,660.339 462.622,657.961 461.577,651.885 460.884,645.281 459.842,637.621 459.492,632.603 
		458.799,629.695 458.799,628.902 458.452,626.526 458.452,625.47 457.061,625.734 455.672,625.734 454.283,625.999 
		453.238,625.999 450.461,626.526 449.767,626.526 447.335,626.79 445.944,626.79 444.556,627.319 443.514,627.319 440.735,627.582 
		438.302,627.582 438.302,627.848 436.219,627.848 435.176,628.375 429.965,628.639 427.188,628.902 423.713,629.434 
		423.364,629.434 420.933,629.695 418.153,630.225 407.037,631.545 405.3,632.073 402.174,632.337 394.185,633.394 393.142,633.394 
			"/>
</g>
<g id="Becket">
	<polygon fill="#008332" stroke="#FFFFFF" stroke-linecap="round" stroke-linejoin="round" stroke-miterlimit="10" points="
		524.802,491.808 526.54,491.278 526.888,491.015 527.931,491.278 528.277,491.808 529.318,492.071 529.318,492.336 
		530.015,492.336 531.057,492.071 531.751,491.278 532.099,491.015 532.446,489.959 533.142,489.431 533.488,489.431 
		535.573,491.015 537.657,493.922 539.048,494.978 539.742,495.77 540.089,496.034 541.131,496.298 542.174,496.298 
		543.563,496.034 544.257,496.034 544.954,495.242 544.954,493.922 545.299,493.392 546.343,493.129 547.385,492.336 
		547.385,491.015 547.731,490.752 548.079,490.752 548.773,489.959 549.121,489.959 549.121,488.902 549.816,488.373 
		551.204,487.845 550.163,519.544 550.163,534.337 549.816,539.883 549.816,555.204 546.689,554.678 546.343,556.261 
		545.299,559.695 542.867,568.412 542.867,568.939 534.531,569.469 533.488,569.997 528.277,570.261 525.846,570.261 
		520.287,570.791 512.645,571.317 511.95,567.092 507.781,567.356 507.434,567.356 502.573,568.148 493.191,569.204 
		491.103,569.469 483.117,570.261 479.295,570.791 475.82,571.054 473.737,571.317 467.832,572.11 466.441,572.11 462.622,572.375 
		454.283,573.694 452.547,565.241 452.197,562.601 452.197,561.279 450.461,561.279 449.072,561.545 448.378,561.545 
		440.735,562.072 438.302,562.338 436.913,562.338 431.356,563.129 427.881,563.394 422.322,563.922 421.976,563.922 
		422.322,563.129 422.322,562.601 421.976,562.338 421.281,560.487 420.237,559.695 419.891,558.374 419.544,558.11 419.891,558.11 
		419.891,556.525 421.976,555.204 421.976,554.147 421.281,553.619 418.153,553.619 417.459,554.147 415.721,554.147 
		399.047,556.261 379.939,559.167 378.551,559.167 378.551,558.11 378.201,556.261 378.551,545.694 378.899,522.185 378.899,516.11 
		379.594,511.883 379.594,505.808 379.939,496.825 379.939,494.184 380.637,483.354 380.637,468.825 384.108,468.562 
		410.51,465.394 417.113,464.599 418.153,464.599 421.976,464.07 438.998,462.487 440.038,462.487 441.431,461.957 446.641,461.694 
		448.378,461.166 456.02,460.639 457.41,460.108 458.452,460.108 467.832,459.052 482.769,457.731 483.464,468.825 483.464,469.354 
		484.157,469.62 484.507,470.41 487.286,471.469 487.286,471.731 490.76,473.316 491.103,473.316 491.801,473.58 492.498,473.845 
		495.622,475.43 496.318,476.223 497.012,476.751 497.36,477.542 498.402,477.808 498.749,477.808 499.443,477.542 500.137,477.542 
		501.181,477.808 501.528,478.335 501.528,479.13 502.223,480.185 502.573,480.449 503.612,480.449 505.003,480.185 505.35,479.392 
		506.393,479.13 507.781,479.13 508.478,479.392 508.823,480.185 509.172,480.713 508.823,481.242 508.823,482.562 509.172,484.411 
		509.866,485.203 511.255,485.996 511.603,486.262 512.645,486.523 513.689,487.316 515.077,488.902 515.077,489.166 
		517.508,491.015 518.203,491.278 519.244,492.071 522.024,492.863 523.066,492.863 524.457,491.808 	"/>
</g>
<g id="Lee">
	<polygon fill="#008332" stroke="#FFFFFF" stroke-linecap="round" stroke-linejoin="round" stroke-miterlimit="10" points="
		369.17,517.43 366.046,517.695 363.96,517.695 347.285,520.337 346.244,520.337 335.474,521.657 326.441,522.979 325.746,522.979 
		309.074,525.091 300.734,535.657 295.873,541.734 292.397,545.432 290.313,548.601 258.004,548.601 251.058,548.336 
		241.678,548.336 241.678,526.147 242.025,523.243 242.025,491.278 242.72,488.109 242.72,475.694 250.71,475.694 250.363,474.639 
		250.363,473.845 253.488,473.845 253.488,472.261 254.184,471.469 262.523,471.469 266.342,471.731 290.659,471.731 
		290.659,470.41 290.313,468.825 290.313,460.902 289.62,459.847 289.62,458.26 289.271,456.147 289.271,454.827 289.62,453.77 
		289.62,453.241 290.313,452.185 290.313,451.394 289.62,451.128 289.62,449.806 289.271,449.806 289.271,448.486 289.62,448.222 
		290.659,447.164 290.659,446.902 292.397,445.315 294.134,445.315 294.48,445.054 294.83,445.054 295.524,444.524 295.524,444.26 
		295.873,444.26 295.873,443.995 296.218,443.467 296.218,443.203 296.914,442.675 296.914,442.411 297.262,442.147 
		297.262,441.619 296.218,441.619 295.873,442.147 295.524,442.147 294.83,442.411 294.48,442.675 294.48,441.354 294.83,441.09 
		294.83,439.241 294.48,439.241 294.134,438.712 293.439,438.448 293.439,436.335 294.134,435.808 294.134,435.542 294.48,435.542 
		295.873,432.902 295.873,432.637 294.48,432.637 294.48,429.995 294.134,429.729 294.134,428.675 294.48,427.619 294.48,426.034 
		294.83,426.826 295.873,427.882 298.302,429.995 298.302,430.522 303.514,435.808 304.557,436.6 304.904,437.393 322.621,456.147 
		322.969,456.938 342.424,477.542 345.896,480.713 358.054,474.372 379.594,495.77 379.939,496.298 379.939,496.825 
		379.594,505.808 379.594,511.883 378.899,516.11 369.866,517.166 	"/>
</g>
<g id="West_Stockbridge">
	<polyline fill="#008332" stroke="#FFFFFF" stroke-linecap="round" stroke-linejoin="round" stroke-miterlimit="10" points="
		107.584,454.827 108.28,453.77 110.017,448.486 110.363,447.43 110.363,446.902 111.058,446.374 111.058,445.581 111.405,444.524 
		176.716,444.524 185.054,444.26 185.749,444.524 186.096,444.26 184.358,446.902 182.621,448.486 180.883,451.128 178.799,454.297 
		177.41,456.147 176.021,457.996 176.021,459.847 175.674,461.957 175.674,464.07 174.978,466.978 174.978,470.41 174.63,473.845 
		174.284,479.392 171.505,479.656 168.377,479.656 167.683,480.185 160.735,480.449 160.388,498.675 160.041,514.524 
		160.041,526.411 159.346,536.186 159.346,547.015 150.314,547.015 149.619,546.751 148.23,547.015 120.437,547.015 122.87,531.431 
		113.838,527.204 106.541,523.506 106.194,510.298 104.458,509.506 103.067,509.506 89.519,505.808 102.373,469.62 103.067,468.033 
		103.414,466.978 105.152,461.166 107.584,454.827 	"/>
</g>
<g id="Windsor">
	<polygon fill="#008332" stroke="#FFFFFF" stroke-linecap="round" stroke-linejoin="round" stroke-miterlimit="10" points="
		566.839,313.768 565.795,318.259 565.448,318.259 564.059,317.731 561.977,317.731 551.901,315.881 544.954,314.825 
		512.645,309.013 478.946,303.467 466.788,301.617 453.588,299.503 449.418,298.182 449.072,298.182 441.775,297.125 
		440.389,297.125 435.522,296.333 431.701,295.541 427.881,295.013 428.924,293.165 429.27,290.259 426.146,289.466 425.45,289.2 
		422.671,288.409 424.753,281.542 431.356,257.239 436.219,241.655 438.998,230.822 440.389,225.805 448.03,227.126 
		456.367,228.446 458.452,222.107 458.452,221.578 459.842,216.56 483.117,220.256 501.181,223.164 502.573,223.691 
		519.594,226.862 533.142,228.975 534.531,228.975 539.048,229.767 547.385,231.088 551.901,232.144 560.237,233.465 
		573.786,235.579 576.913,236.371 578.303,236.371 580.039,236.635 580.386,236.635 581.082,236.898 582.124,236.898 
		585.249,237.69 584.207,240.597 581.43,253.277 576.913,272.031 575.869,275.729 574.481,281.542 573.439,284.183 572.396,287.88 
		572.396,288.409 572.05,291.051 572.05,291.579 571.354,293.693 569.618,300.825 569.27,303.729 568.575,306.107 568.228,306.899 
		566.839,312.975 	"/>
</g>
<g id="Hinsdale">
	<polygon fill="#008332" stroke="#FFFFFF" stroke-linecap="round" stroke-linejoin="round" stroke-miterlimit="10" points="
		468.526,340.975 469.916,340.975 468.526,344.938 466.788,349.693 465.053,355.503 465.4,355.503 465.4,355.767 466.093,355.767 
		466.093,356.297 466.441,356.297 466.441,356.562 466.788,356.825 467.483,357.618 467.832,358.146 467.832,358.41 468.873,358.41 
		468.873,358.675 468.526,359.203 468.526,359.467 468.873,359.467 469.22,359.731 469.22,360.523 468.873,360.523 469.22,360.788 
		469.916,361.579 469.916,362.372 469.22,362.372 468.873,362.635 468.526,363.429 467.483,363.693 466.788,364.485 
		466.441,364.485 466.093,365.013 464.704,365.013 464.704,364.222 464.01,363.693 463.315,363.693 462.272,364.485 
		462.272,365.013 463.315,365.542 465.053,366.335 465.4,366.599 466.093,366.599 466.788,368.977 466.788,370.034 466.441,371.09 
		463.664,381.127 460.884,380.597 458.104,391.693 457.061,395.391 456.02,397.24 453.588,407.278 453.238,408.336 452.197,408.071 
		437.955,405.429 433.787,404.636 431.007,404.372 430.312,404.372 418.153,402.26 417.113,401.731 400.785,398.825 
		402.868,390.372 405.3,382.975 405.996,378.75 380.982,377.958 380.637,377.958 369.866,377.693 372.993,367.392 373.688,365.277 
		380.637,342.031 382.371,334.899 383.414,332.259 386.194,332.787 405.647,333.315 413.638,333.315 418.501,333.842 
		420.237,325.127 424.06,310.069 424.753,308.75 426.146,302.937 427.881,295.013 431.701,295.541 435.522,296.333 440.389,297.125 
		441.775,297.125 449.072,298.182 449.418,298.182 453.588,299.503 466.788,301.617 478.946,303.467 474.433,316.673 
		473.04,316.409 467.832,333.315 467.483,334.899 466.441,338.07 466.093,339.655 468.873,339.655 	"/>
</g>
<g id="Dalton">
	<polygon fill="#008332" stroke="#FFFFFF" stroke-linecap="round" stroke-linejoin="round" stroke-miterlimit="10" points="
		378.899,261.729 383.414,254.069 388.973,245.352 391.752,241.39 394.88,236.371 405.647,237.69 417.459,239.276 418.153,239.54 
		436.219,241.655 431.356,257.239 424.753,281.542 422.671,288.409 425.45,289.2 426.146,289.466 429.27,290.259 428.924,293.165 
		427.881,295.013 426.146,302.937 424.753,308.75 424.06,310.069 420.237,325.127 418.501,333.842 413.638,333.315 405.647,333.315 
		386.194,332.787 383.414,332.259 382.371,334.899 380.637,342.031 373.688,365.277 372.993,367.392 369.866,377.693 
		357.012,377.165 356.665,377.165 341.38,376.373 339.989,376.373 335.474,376.108 336.169,373.202 338.254,366.07 338.254,365.277 
		338.601,363.166 339.989,358.675 341.38,353.919 342.074,352.598 342.074,351.542 342.424,350.749 342.424,349.693 
		343.813,345.465 345.896,338.07 346.244,337.012 346.591,335.429 347.285,333.842 347.635,331.202 348.675,327.239 
		349.024,326.447 349.718,323.277 351.455,317.201 351.805,314.56 351.805,313.503 356.318,298.975 356.665,297.654 
		373.688,269.654 376.813,265.165 	"/>
</g>
<g id="Richmond">
	<polygon fill="#008332" stroke="#FFFFFF" stroke-linecap="round" stroke-linejoin="round" stroke-miterlimit="10" points="
		205.896,403.58 206.938,411.239 207.632,414.146 207.982,415.729 198.603,415.729 198.603,421.543 198.95,423.921 198.95,425.504 
		197.559,425.504 194.084,425.77 195.127,430.789 195.475,433.43 196.517,439.504 196.517,441.354 196.865,444.26 186.096,444.26 
		185.749,444.524 185.054,444.26 176.716,444.524 111.405,444.524 116.615,430.522 117.312,428.939 120.437,418.9 122.522,414.41 
		122.522,413.882 123.911,409.92 125.302,406.486 125.65,405.166 126.692,402.524 127.039,401.731 129.123,396.447 129.469,394.6 
		130.86,390.636 132.249,387.467 135.377,378.75 135.377,378.221 138.155,371.09 140.587,363.693 140.934,363.429 148.578,365.013 
		149.619,365.277 150.314,365.277 153.439,365.542 177.063,368.977 183.664,370.034 188.526,371.09 189.568,371.353 
		189.915,371.353 191.306,371.881 192.348,371.881 195.127,372.146 196.517,372.409 196.865,372.409 198.95,372.937 210.76,374.786 
		216.665,375.844 235.079,378.75 240.636,379.279 240.287,386.939 228.824,386.676 220.834,386.939 219.792,390.899 218.402,400.41 
		205.549,400.41 	"/>
</g>
<g id="Pittsfield">
	<polygon fill="#8FAAA0" stroke="#FFFFFF" stroke-linecap="round" stroke-linejoin="round" stroke-miterlimit="10" points="
		334.433,294.221 335.474,294.221 354.929,297.125 356.665,297.654 356.318,298.975 351.805,313.503 351.805,314.56 
		351.455,317.201 349.718,323.277 349.024,326.447 348.675,327.239 347.635,331.202 347.285,333.842 346.591,335.429 
		346.244,337.012 345.896,338.07 343.813,345.465 342.424,349.693 342.424,350.749 342.074,351.542 342.074,352.598 341.38,353.919 
		339.989,358.675 338.601,363.166 338.254,365.277 338.254,366.07 336.169,373.202 335.474,376.108 330.611,393.542 326.441,392.75 
		313.936,390.899 302.471,389.051 294.83,387.732 288.228,386.676 281.282,385.617 279.544,385.617 276.07,384.825 268.427,383.769 
		240.636,379.279 235.079,378.75 216.665,375.844 210.76,374.786 198.95,372.937 196.865,372.409 196.517,372.409 195.127,372.146 
		192.348,371.881 191.306,371.881 189.915,371.353 189.568,371.353 188.526,371.09 192.348,356.825 197.906,333.842 
		199.991,326.975 200.338,325.391 202.075,316.409 205.549,303.467 206.591,300.297 208.329,292.371 209.024,288.936 
		214.234,289.466 214.581,286.559 214.929,286.295 217.36,277.843 222.225,278.635 222.572,278.635 238.205,280.485 
		249.322,282.599 255.92,283.126 260.091,283.655 272.597,285.239 275.376,285.502 276.765,286.295 294.83,288.144 295.524,288.409 
		300.734,289.2 304.904,290.259 321.926,292.371 333.389,294.221 	"/>
</g>
<g id="Hancock">
	<polyline fill="#008332" stroke="#FFFFFF" stroke-linecap="round" stroke-linejoin="round" stroke-miterlimit="10" points="
		179.494,255.126 182.273,248.257 184.358,242.183 185.749,238.219 198.95,201.238 203.116,190.144 205.896,182.218 
		207.632,177.992 211.107,167.427 212.845,163.464 217.012,152.105 219.792,143.916 222.572,135.199 228.477,135.729 
		253.141,136.257 257.31,137.048 270.511,137.313 268.775,143.916 258.353,181.954 275.027,184.069 262.175,205.2 259.743,208.634 
		259.396,209.163 259.396,209.954 238.205,242.975 237.51,245.352 227.782,260.145 223.961,265.955 218.75,274.673 218.75,274.673 
		217.36,277.843 214.929,286.295 214.581,286.559 214.234,289.466 209.024,288.936 208.329,292.371 206.591,300.297 
		205.549,303.467 202.075,316.409 200.338,325.391 199.991,326.975 197.906,333.842 192.348,356.825 188.526,371.09 
		183.664,370.034 177.063,368.977 153.439,365.542 150.314,365.277 149.619,365.277 148.578,365.013 140.934,363.429 
		141.282,361.579 141.976,360.523 142.323,359.203 145.798,349.957 146.146,348.901 146.146,348.107 148.578,342.031 
		149.619,338.864 150.314,336.22 155.177,323.277 155.177,322.484 155.524,322.221 160.735,308.22 160.735,306.899 162.473,303.729 
		162.82,301.617 163.862,300.297 169.073,284.447 169.42,283.655 170.462,281.542 173.589,270.446 174.284,269.391 174.63,268.597 
		177.063,261.995 179.494,255.126 	"/>
</g>
<g id="Lanesborough">
	<polyline fill="#008332" stroke="#FFFFFF" stroke-linecap="round" stroke-linejoin="round" stroke-miterlimit="10" points="
		282.671,185.917 283.365,185.917 284.06,185.917 306.64,189.879 317.409,191.464 325.746,192.784 326.441,192.784 329.221,193.843 
		334.433,194.371 335.474,194.371 334.433,195.955 329.916,202.559 325.746,209.691 327.833,209.954 332.35,210.218 327.139,219.2 
		333.389,220.256 329.569,226.862 324.357,235.314 338.254,237.69 347.285,238.748 347.635,238.748 349.718,238.748 
		351.106,239.276 350.412,240.068 347.285,244.561 341.031,254.596 339.989,255.391 338.601,257.767 337.212,259.88 
		336.169,261.201 342.074,261.995 344.854,262.522 345.896,262.522 349.718,263.051 348.675,265.165 355.622,266.749 
		373.688,269.654 356.665,297.654 354.929,297.125 335.474,294.221 334.433,294.221 333.389,294.221 321.926,292.371 
		304.904,290.259 300.734,289.2 295.524,288.409 294.83,288.144 276.765,286.295 275.376,285.502 272.597,285.239 260.091,283.655 
		255.92,283.126 249.322,282.599 238.205,280.485 222.572,278.635 222.225,278.635 217.36,277.843 218.75,274.673 218.75,274.673 
		223.961,265.955 227.782,260.145 237.51,245.352 238.205,242.975 259.396,209.954 259.396,209.163 259.743,208.634 262.175,205.2 
		275.027,184.069 281.977,185.125 282.671,185.917 	"/>
</g>
<g id="Cheshire">
	<polyline fill="#008332" stroke="#FFFFFF" stroke-linecap="round" stroke-linejoin="round" stroke-miterlimit="10" points="
		336.863,185.917 337.558,182.748 332.35,164.784 336.863,166.37 353.887,170.333 364.653,173.238 378.899,174.295 391.405,174.295 
		393.836,174.295 396.963,174.823 402.174,174.823 413.638,175.351 422.322,175.351 425.102,175.88 426.49,175.88 435.176,176.144 
		443.167,176.672 450.81,176.936 461.229,177.2 461.229,177.992 463.315,189.086 463.664,190.408 465.4,200.709 449.767,213.654 
		449.072,214.183 449.767,214.446 450.461,214.446 459.842,216.56 458.452,221.578 458.452,222.107 456.367,228.446 448.03,227.126 
		440.389,225.805 438.998,230.822 436.219,241.655 418.153,239.54 417.459,239.276 405.647,237.69 394.88,236.371 391.752,241.39 
		388.973,245.352 383.414,254.069 378.899,261.729 376.813,265.165 373.688,269.654 355.622,266.749 348.675,265.165 
		349.718,263.051 345.896,262.522 344.854,262.522 342.074,261.995 336.169,261.201 337.212,259.88 338.601,257.767 
		339.989,255.391 341.031,254.596 347.285,244.561 350.412,240.068 351.106,239.276 349.718,238.748 347.635,238.748 
		347.285,238.748 338.254,237.69 324.357,235.314 329.569,226.862 333.389,220.256 327.139,219.2 332.35,210.218 327.833,209.954 
		325.746,209.691 329.916,202.559 334.433,195.955 335.474,194.371 336.863,185.917 	"/>
</g>
<g id="Adams">
	<polyline fill="#008332" stroke="#FFFFFF" stroke-linecap="round" stroke-linejoin="round" stroke-miterlimit="10" points="
		368.477,126.746 369.866,105.086 377.162,105.877 382.721,105.877 400.436,106.936 401.479,106.936 407.385,107.2 418.153,108.255 
		431.007,108.784 434.134,108.784 437.607,109.048 442.124,109.048 443.514,109.578 477.906,111.426 483.464,111.69 
		483.464,116.974 481.727,143.916 480.684,152.105 480.684,158.182 480.337,160.294 479.295,177.992 461.229,177.2 450.81,176.936 
		443.167,176.672 435.176,176.144 426.49,175.88 425.102,175.88 422.322,175.351 413.638,175.351 402.174,174.823 396.963,174.823 
		393.836,174.295 391.405,174.295 378.899,174.295 364.653,173.238 366.046,158.709 367.781,143.916 368.129,139.954 
		368.129,133.878 368.477,126.746 	"/>
</g>
<g id="North_Adams">
	<polygon fill="#008332" stroke="#FFFFFF" stroke-linecap="round" stroke-linejoin="round" stroke-miterlimit="10" points="
		371.95,78.67 371.95,76.557 361.876,76.029 361.876,75.5 362.57,66.255 362.57,65.198 362.917,60.18 362.917,57.273 
		363.266,56.481 363.266,51.464 363.96,47.764 373.688,48.293 392.794,49.085 418.153,50.142 422.322,50.406 429.27,50.406 
		431.007,50.67 431.701,50.67 436.566,50.406 440.038,50.406 440.735,50.67 445.944,50.67 448.378,51.199 448.03,51.199 
		452.547,51.199 458.799,51.464 463.315,51.464 465.4,51.991 472.696,51.991 475.127,52.255 483.117,52.255 483.464,52.52 
		487.98,52.52 486.591,64.671 486.591,65.992 485.548,88.708 484.854,95.312 484.157,108.784 483.464,111.69 477.906,111.426 
		443.514,109.578 442.124,109.048 437.607,109.048 434.134,108.784 431.007,108.784 418.153,108.255 407.385,107.2 401.479,106.936 
		400.436,106.936 382.721,105.877 377.162,105.877 369.866,105.086 370.909,93.463 	"/>
</g>
<g id="Florida">
	<polyline fill="#008332" stroke="#FFFFFF" stroke-linecap="round" stroke-linejoin="round" stroke-miterlimit="10" points="
		486.591,65.992 486.591,64.671 487.98,52.52 488.674,49.085 499.792,16.067 524.802,16.331 526.888,16.331 526.888,35.877 
		526.54,58.859 529.318,58.859 536.962,59.388 551.901,60.18 553.292,60.18 564.753,59.388 566.839,59.123 575.175,58.332 
		587.682,57.801 600.535,56.218 605.746,56.218 606.093,56.481 606.093,58.065 604.704,59.915 604.704,60.18 604.007,60.708 
		602.968,61.237 601.924,62.293 601.578,63.35 600.884,63.35 601.578,64.143 601.924,64.671 602.271,65.198 603.315,66.255 
		603.315,67.576 602.968,69.689 600.884,71.803 600.188,72.596 596.366,72.596 594.977,73.388 593.241,74.444 591.85,74.972 
		588.725,74.972 584.207,73.916 582.124,73.916 580.039,73.916 578.65,73.916 578.303,74.444 578.303,74.972 577.262,76.557 
		576.913,77.613 576.913,77.878 576.22,78.67 575.869,79.199 575.869,80.784 576.22,81.312 576.22,81.842 577.262,82.634 
		576.913,82.634 577.262,82.634 577.262,84.482 576.913,84.482 572.396,84.482 569.965,84.482 567.881,84.482 566.143,84.482 
		565.448,84.746 564.059,85.274 563.016,85.274 562.322,85.538 562.322,86.331 563.364,89.237 563.364,89.766 563.016,90.03 
		558.848,90.03 557.806,89.766 556.765,90.03 556.417,90.294 555.721,90.294 555.721,91.086 556.417,91.614 557.111,92.407 
		559.196,94.255 561.628,96.104 563.364,97.954 564.407,98.218 564.753,98.218 565.795,98.746 567.185,99.276 568.575,99.804 
		570.658,100.332 571.354,100.332 573.091,101.124 573.786,101.917 574.481,102.974 575.869,103.766 575.869,104.029 
		576.22,104.294 577.262,104.822 577.607,104.294 578.65,104.294 579.692,103.766 580.039,102.974 580.386,102.974 582.471,101.387 
		583.86,101.124 584.901,100.86 586.639,101.124 588.029,101.124 589.418,100.86 590.461,100.332 591.157,99.276 591.157,99.012 
		591.504,98.746 591.85,97.954 592.544,97.954 593.241,97.69 594.282,97.69 597.061,98.218 599.146,99.012 599.492,99.276 
		599.492,101.124 600.188,102.181 600.188,102.974 599.492,104.029 599.492,104.822 598.452,106.142 598.452,111.69 599.146,111.69 
		599.146,111.954 599.492,113.01 600.188,113.538 600.188,114.596 600.535,114.596 600.535,114.86 600.884,115.652 601.924,115.652 
		604.007,125.69 602.968,126.483 601.924,126.483 600.188,125.69 591.157,125.69 590.461,126.483 590.461,126.746 590.113,126.746 
		590.113,126.746 588.725,127.804 587.682,128.332 586.292,130.445 586.292,132.294 586.639,133.086 586.639,134.936 
		584.901,135.729 583.514,135.729 582.124,134.671 582.124,134.407 581.082,133.35 580.039,133.086 579.692,133.086 578.997,133.35 
		578.997,133.878 578.65,134.407 578.65,135.199 578.303,135.992 576.913,135.992 576.913,135.729 575.869,134.671 574.481,133.878 
		573.786,132.558 573.091,132.03 573.091,131.766 571.354,130.445 569.618,129.652 568.228,129.388 567.881,129.388 
		566.839,129.652 566.839,130.445 566.143,130.445 566.143,130.974 564.753,131.238 564.753,132.294 565.448,132.558 
		565.448,133.35 563.016,133.35 561.977,134.407 560.584,134.671 556.765,135.199 555.373,135.199 554.333,134.936 553.983,134.936 
		553.292,134.407 552.596,133.35 551.553,133.35 551.204,133.086 550.511,132.558 551.204,131.766 551.204,130.445 550.511,129.652 
		546.689,128.332 545.994,127.804 544.257,126.746 542.867,126.746 542.174,126.746 542.174,126.483 541.479,125.161 
		541.479,124.106 542.174,123.312 542.174,122.52 541.479,122.52 539.742,121.464 538.699,120.671 539.048,119.616 525.846,119.351 
		511.95,118.822 501.181,117.766 499.792,117.766 483.464,116.708 483.464,111.69 484.157,108.784 484.854,95.312 485.548,88.708 
		486.591,65.992 	"/>
</g>
<g id="Clarksburg">
	<polygon fill="#008332" stroke="#FFFFFF" stroke-linecap="round" stroke-linejoin="round" stroke-miterlimit="10" points="
		454.979,15.01 473.04,15.273 477.558,15.273 484.854,15.538 499.792,16.067 488.674,49.085 487.98,52.52 483.464,52.52 
		483.117,52.255 475.127,52.255 472.696,51.991 465.4,51.991 463.315,51.464 458.799,51.464 452.547,51.199 448.03,51.199 
		448.378,51.199 445.944,50.67 440.735,50.67 440.038,50.406 436.566,50.406 431.701,50.67 431.007,50.67 429.27,50.406 
		422.322,50.406 418.153,50.142 392.794,49.085 373.688,48.293 376.12,13.161 399.047,13.425 418.153,14.217 426.49,14.217 	"/>
</g>
<g id="Williamstown">
	<polygon fill="#008332" stroke="#FFFFFF" stroke-linecap="round" stroke-linejoin="round" stroke-miterlimit="10" points="
		368.129,133.878 368.129,139.954 354.234,139.954 350.412,139.954 336.169,138.898 327.833,138.898 311.504,138.371 
		310.115,138.371 284.06,137.842 270.511,137.313 257.31,137.048 253.141,136.257 228.477,135.729 222.572,135.199 236.816,97.69 
		251.058,57.009 253.141,52.255 254.532,47.235 256.269,42.481 257.31,40.368 258.004,37.991 258.353,36.934 258.701,35.877 
		258.701,35.613 267.733,11.047 284.06,11.311 288.576,11.574 301.429,11.574 321.578,12.103 322.621,12.103 324.01,12.368 
		338.254,12.368 350.064,12.633 351.106,12.633 365.351,13.161 376.12,13.161 373.688,48.293 363.96,47.764 363.266,51.464 
		363.266,56.481 362.917,57.273 362.917,60.18 362.57,65.198 362.57,66.255 361.876,75.5 361.876,76.029 371.95,76.557 
		371.95,78.67 370.909,93.463 369.866,105.086 368.477,126.746 	"/>
</g>
<g id="Tyringham">
	<polyline fill="#008332" stroke="#FFFFFF" stroke-linecap="round" stroke-linejoin="round" stroke-miterlimit="10" points="
		378.899,522.185 378.551,545.694 378.201,556.261 378.551,558.11 378.551,559.167 378.201,577.923 378.201,597.469 
		377.508,608.299 377.508,614.902 377.508,614.64 375.771,613.847 340.686,596.676 336.863,594.827 331.652,592.451 
		328.177,590.601 308.378,580.827 284.06,569.204 283.017,568.939 281.628,568.148 279.196,567.092 276.418,565.507 
		277.808,564.187 280.585,560.487 284.06,556.261 284.06,555.732 290.313,548.601 292.397,545.432 295.873,541.734 300.734,535.657 
		309.074,525.091 325.746,522.979 326.441,522.979 335.474,521.657 346.244,520.337 347.285,520.337 363.96,517.695 
		366.046,517.695 369.17,517.43 369.866,517.166 378.899,516.11 378.899,522.185 	"/>
</g>
<g id="Sandisfield">
	<polygon fill="#008332" stroke="#FFFFFF" stroke-linecap="round" stroke-linejoin="round" stroke-miterlimit="10" points="
		394.185,633.394 402.174,632.337 405.3,632.073 407.037,631.545 418.153,630.225 420.933,629.695 423.364,629.434 423.713,629.434 
		427.188,628.902 429.965,628.639 435.176,628.375 436.219,627.848 438.302,627.848 438.302,627.582 440.735,627.582 
		443.514,627.319 444.556,627.319 445.944,626.79 447.335,626.79 449.767,626.526 450.461,626.526 453.238,625.999 454.283,625.999 
		455.672,625.734 457.061,625.734 458.452,625.47 458.452,626.526 458.799,628.902 458.799,629.695 459.492,632.603 
		459.842,637.621 460.884,645.281 461.577,651.885 462.622,657.961 463.315,660.339 463.664,664.83 464.01,667.205 464.704,671.432 
		465.4,678.302 467.832,678.83 470.263,678.302 472.347,677.771 475.127,677.243 475.82,677.243 476.515,677.771 477.558,678.83 
		477.906,678.83 477.906,682.526 477.558,683.321 476.863,684.904 477.558,687.282 477.906,687.81 478.255,688.603 478.255,690.188 
		478.946,690.979 478.946,691.244 479.295,691.244 479.644,692.3 479.644,693.094 480.337,694.15 480.337,694.15 482.769,696.263 
		483.464,697.846 484.507,698.905 485.548,699.169 485.895,700.753 485.895,702.074 484.854,703.131 483.117,704.715 
		481.379,705.772 477.906,706.037 475.475,707.092 474.433,707.886 473.737,708.678 473.737,709.998 474.433,711.056 
		474.433,712.64 474.084,713.433 473.737,713.962 473.04,714.226 471.651,714.753 471.305,715.282 471.651,717.66 471.651,718.451 
		472.347,719.244 472.347,720.564 473.04,727.434 473.04,728.226 476.863,735.886 478.255,739.056 482.769,748.301 484.157,751.208 
		484.854,753.585 485.548,753.585 486.591,754.64 487.286,755.961 488.325,756.491 488.674,757.547 488.674,758.868 487.98,759.659 
		486.591,761.51 486.591,764.414 487.98,765.471 490.76,766.528 491.103,766.528 491.801,766.792 492.148,766.792 493.191,767.057 
		493.191,767.585 493.537,767.585 493.537,769.433 493.887,769.698 493.887,771.547 493.191,773.395 493.191,774.981 
		492.498,776.038 491.801,777.094 491.103,778.151 490.76,778.679 490.76,779.999 491.801,781.321 492.498,782.113 492.498,784.755 
		493.191,785.284 493.537,786.075 494.581,787.66 487.98,787.66 469.22,786.604 468.873,786.604 458.452,786.604 440.038,786.075 
		425.102,785.284 415.027,785.284 410.859,785.019 405.647,785.019 392.794,784.755 386.194,783.962 381.331,783.962 
		369.866,783.962 367.086,783.962 366.046,777.094 365.697,772.867 365.351,766.792 364.309,760.188 362.917,750.678 
		361.876,742.755 361.529,739.848 361.529,737.207 360.486,731.132 360.14,725.583 359.445,724.527 358.749,716.603 
		358.749,715.019 358.054,710.791 357.707,709.735 357.012,703.396 356.665,702.074 356.665,699.961 356.318,698.112 
		355.622,694.15 353.887,677.243 351.805,662.978 351.455,660.339 358.749,659.81 373.34,658.487 372.993,652.413 375.771,642.903 
		378.201,634.714 393.142,633.394 	"/>
</g>
<g id="New_Ashford">
	<polyline fill="#008332" stroke="#FFFFFF" stroke-linecap="round" stroke-linejoin="round" stroke-miterlimit="10" points="
		364.653,173.238 353.887,170.333 336.863,166.37 332.35,164.784 337.558,182.748 336.863,185.917 335.474,194.371 334.433,194.371 
		329.221,193.843 326.441,192.784 325.746,192.784 317.409,191.464 306.64,189.879 284.06,185.917 283.365,185.917 282.671,185.917 
		281.977,185.125 258.353,181.954 268.775,143.916 270.511,137.313 284.06,137.842 310.115,138.371 311.504,138.371 
		327.833,138.898 336.169,138.898 350.412,139.954 354.234,139.954 368.129,139.954 367.781,143.916 366.046,158.709 
		364.653,173.238 	"/>
</g>
<g id="Stockbridge">
	<polyline fill="#008332" stroke="#FFFFFF" stroke-linecap="round" stroke-linejoin="round" stroke-miterlimit="10" points="
		242.72,472.788 242.72,488.109 242.025,491.278 242.025,523.243 241.678,526.147 241.678,548.336 228.824,548.336 223.267,547.809 
		199.991,547.809 193.737,547.545 180.883,547.545 174.63,547.015 159.346,547.015 159.346,536.186 160.041,526.411 
		160.041,514.524 160.388,498.675 160.735,480.449 167.683,480.185 168.377,479.656 171.505,479.656 174.284,479.392 
		174.63,473.845 174.978,470.41 174.978,466.978 175.674,464.07 175.674,461.957 176.021,459.847 176.021,457.996 177.41,456.147 
		178.799,454.297 180.883,451.128 182.621,448.486 184.358,446.902 186.096,444.26 210.76,444.26 213.54,443.995 213.54,444.26 
		229.865,444.26 230.213,443.995 242.72,443.995 242.72,452.448 242.025,452.448 242.025,452.977 242.72,452.977 242.72,472.788 	
		"/>
</g>
<g id="Savoy">
	<polyline fill="#008332" stroke="#FFFFFF" stroke-linecap="round" stroke-linejoin="round" stroke-miterlimit="10" points="
		483.117,220.256 459.842,216.56 450.461,214.446 449.767,214.446 449.072,214.183 449.767,213.654 465.4,200.709 463.664,190.408 
		463.315,189.086 461.229,177.992 461.229,177.2 479.295,177.992 480.337,160.294 480.684,158.182 480.684,152.105 481.727,143.916 
		483.464,116.974 483.464,116.708 499.792,117.766 501.181,117.766 511.95,118.822 525.846,119.351 539.048,119.616 
		538.699,120.671 539.742,121.464 541.479,122.52 542.174,122.52 542.174,123.312 541.479,124.106 541.479,125.161 542.174,126.483 
		542.174,126.746 542.867,126.746 544.257,126.746 545.994,127.804 546.689,128.332 550.511,129.652 551.204,130.445 
		551.204,131.766 550.511,132.558 551.204,133.086 551.553,133.35 552.596,133.35 553.292,134.407 553.983,134.936 554.333,134.936 
		555.373,135.199 556.765,135.199 560.584,134.671 561.977,134.407 563.016,133.35 565.448,133.35 565.448,132.558 564.753,132.294 
		564.753,131.238 566.143,130.974 566.143,130.445 566.839,130.445 566.839,129.652 567.881,129.388 568.228,129.388 
		569.618,129.652 571.354,130.445 573.091,131.766 573.091,132.03 573.786,132.558 574.481,133.878 575.869,134.671 
		576.913,135.729 576.913,135.992 578.303,135.992 578.65,135.199 578.65,134.407 578.997,133.878 578.997,133.35 579.692,133.086 
		580.039,133.086 581.082,133.35 582.124,134.407 582.124,134.671 583.514,135.729 584.901,135.729 586.639,134.936 
		586.639,133.086 586.292,132.294 586.292,130.445 587.682,128.332 588.725,127.804 590.113,126.746 590.113,126.746 
		590.461,126.746 590.461,126.483 591.157,125.69 600.188,125.69 601.924,126.483 602.968,126.483 604.007,125.69 604.007,126.746 
		600.188,139.954 599.492,141.804 599.146,143.916 591.85,169.276 587.682,184.069 584.901,194.635 584.901,195.163 
		579.692,214.183 577.607,220.256 573.786,235.051 573.786,235.579 560.237,233.465 551.901,232.144 547.385,231.088 
		539.048,229.767 534.531,228.975 533.142,228.975 519.594,226.862 502.573,223.691 501.181,223.164 483.117,220.256 	"/>
</g>
<g id="Egremont">
	<polygon fill="#008332" stroke="#FFFFFF" stroke-linecap="round" stroke-linejoin="round" stroke-miterlimit="10" points="
		39.146,645.81 39.841,645.281 40.19,642.903 40.537,642.111 41.579,639.997 41.579,639.204 42.621,636.301 47.138,623.092 
		47.834,622.035 52.695,609.356 54.78,601.96 55.475,600.639 58.603,592.186 62.077,592.451 67.287,593.243 70.066,593.243 
		76.319,593.771 79.098,594.299 83.267,594.563 91.604,595.62 96.121,596.148 103.067,596.676 104.458,596.676 108.28,597.469 
		108.28,602.225 108.627,612.789 108.975,614.11 108.975,615.96 109.668,619.921 108.975,620.449 108.28,620.715 108.28,626.526 
		110.363,625.999 111.058,627.582 111.058,628.902 111.405,632.603 112.448,642.903 113.49,647.923 113.49,650.564 113.838,651.357 
		113.838,653.997 114.185,655.318 134.682,655.318 135.377,658.225 135.724,661.13 130.163,661.13 130.511,663.771 125.65,665.621 
		115.573,668.527 116.268,670.903 116.615,674.602 117.659,679.622 117.659,680.414 118.006,682.263 118.006,684.112 118.7,686.223 
		102.025,686.223 94.384,686.223 85.699,686.223 86.741,687.81 90.213,694.15 92.298,698.112 83.961,701.81 75.972,694.15 
		71.457,690.188 66.938,685.697 63.119,682.263 61.729,680.678 61.033,680.678 58.255,678.302 55.475,675.396 52,671.696 
		48.875,669.32 45.749,666.678 45.054,665.885 42.621,664.83 41.579,664.037 41.232,664.037 33.937,661.13 34.979,658.487 
		37.411,651.62 38.107,648.187 	"/>
</g>
<g id="Alford">
	<polyline fill="#008332" stroke="#FFFFFF" stroke-linecap="round" stroke-linejoin="round" stroke-miterlimit="10" points="
		65.202,572.375 68.676,564.187 69.023,562.072 71.457,556.261 72.151,554.678 76.665,540.94 82.919,523.506 86.393,514.26 
		89.171,506.6 89.519,505.808 103.067,509.506 104.458,509.506 106.194,510.298 106.541,523.506 113.838,527.204 122.87,531.431 
		120.437,547.015 122.522,556.261 123.217,562.072 124.605,570.791 126.692,578.979 127.039,583.732 107.584,583.732 
		108.28,589.545 108.28,597.469 104.458,596.676 103.067,596.676 96.121,596.148 91.604,595.62 83.267,594.563 79.098,594.299 
		76.319,593.771 70.066,593.243 67.287,593.243 62.077,592.451 58.603,592.186 59.297,589.808 62.423,581.093 63.465,578.979 
		64.854,574.752 65.202,572.903 65.202,572.375 	"/>
</g>
<g id="Lenox">
	<polyline fill="#008332" stroke="#FFFFFF" stroke-linecap="round" stroke-linejoin="round" stroke-miterlimit="10" points="
		198.95,425.504 198.95,423.921 198.603,421.543 198.603,415.729 207.982,415.729 207.632,414.146 206.938,411.239 205.896,403.58 
		205.549,400.41 218.402,400.41 219.792,390.899 220.834,386.939 228.824,386.676 240.287,386.939 240.636,379.279 268.427,383.769 
		276.07,384.825 279.544,385.617 281.282,385.617 288.228,386.676 294.83,387.732 302.471,389.051 313.936,390.899 311.504,399.617 
		311.156,400.675 311.156,401.203 308.726,408.862 306.292,417.053 303.166,418.9 296.218,422.862 298.302,429.995 295.873,427.882 
		294.83,426.826 294.48,426.034 294.48,427.619 294.134,428.675 294.134,429.729 294.48,429.995 294.48,432.637 295.873,432.637 
		295.873,432.902 294.48,435.542 294.134,435.542 294.134,435.808 293.439,436.335 293.439,438.448 294.134,438.712 294.48,439.241 
		294.83,439.241 294.83,441.09 294.48,441.354 294.48,442.675 294.83,442.411 295.524,442.147 295.873,442.147 296.218,441.619 
		297.262,441.619 297.262,442.147 296.914,442.411 296.914,442.675 296.218,443.203 296.218,443.467 295.873,443.995 
		295.873,444.26 295.524,444.26 295.524,444.524 294.83,445.054 294.48,445.054 294.134,445.315 292.397,445.315 290.659,446.902 
		290.659,447.164 289.62,448.222 289.271,448.486 289.271,449.806 289.62,449.806 289.62,451.128 290.313,451.394 290.313,452.185 
		289.62,453.241 289.62,453.77 289.271,454.827 289.271,456.147 289.62,458.26 289.62,459.847 290.313,460.902 290.313,468.825 
		290.659,470.41 290.659,471.731 266.342,471.731 262.523,471.469 254.184,471.469 253.488,472.261 253.488,473.845 
		250.363,473.845 250.363,474.639 250.71,475.694 242.72,475.694 242.72,452.977 242.025,452.977 242.025,452.448 242.72,452.448 
		242.72,443.995 230.213,443.995 229.865,444.26 213.54,444.26 213.54,443.995 210.76,444.26 196.865,444.26 196.517,441.354 
		196.517,439.504 195.475,433.43 195.127,430.789 194.084,425.77 197.559,425.504 198.95,425.504 	"/>
</g>
<g id="Peru">
	<polyline fill="#008332" stroke="#FFFFFF" stroke-linecap="round" stroke-linejoin="round" stroke-miterlimit="10" points="
		458.104,391.693 460.884,380.597 463.664,381.127 466.441,371.09 466.788,370.034 466.788,368.977 466.093,366.599 465.4,366.599 
		465.053,366.335 463.315,365.542 462.272,365.013 462.272,364.485 463.315,363.693 464.01,363.693 464.704,364.222 
		464.704,365.013 466.093,365.013 466.441,364.485 466.788,364.485 467.483,363.693 468.526,363.429 468.873,362.635 
		469.22,362.372 469.916,362.372 469.916,361.579 469.22,360.788 468.873,360.523 469.22,360.523 469.22,359.731 468.873,359.467 
		468.526,359.467 468.526,359.203 468.873,358.675 468.873,358.41 467.832,358.41 467.832,358.146 467.483,357.618 466.788,356.825 
		466.441,356.562 466.441,356.297 466.093,356.297 466.093,355.767 465.4,355.767 465.4,355.503 465.053,355.503 466.788,349.693 
		468.526,344.938 469.916,340.975 468.526,340.975 468.873,339.655 466.093,339.655 466.441,338.07 467.483,334.899 
		467.832,333.315 473.04,316.409 474.433,316.673 478.946,303.467 512.645,309.013 544.954,314.825 551.901,315.881 
		561.977,317.731 564.059,317.731 563.016,321.165 559.196,336.749 559.196,337.805 558.153,340.975 557.806,343.088 
		556.765,345.465 551.901,365.277 551.901,366.07 551.553,366.599 551.553,367.392 548.079,380.863 547.731,382.183 
		545.299,390.636 543.563,397.24 542.867,399.354 541.479,404.636 538.699,413.882 530.015,412.299 503.958,407.543 
		493.191,405.429 486.591,404.372 480.684,403.58 477.906,412.826 456.367,408.862 453.238,408.336 453.588,407.278 456.02,397.24 
		457.061,395.391 458.104,391.693 	"/>
</g>
<g id="Washington">
	<polygon fill="#008332" stroke="#FFFFFF" stroke-linecap="round" stroke-linejoin="round" stroke-miterlimit="10" points="
		430.312,404.372 431.007,404.372 433.787,404.636 437.955,405.429 452.197,408.071 453.238,408.336 456.367,408.862 
		477.906,412.826 478.255,418.9 480.337,434.221 480.337,436.335 480.684,438.448 481.379,443.995 481.379,446.109 482.074,455.089 
		482.769,457.731 467.832,459.052 458.452,460.108 457.41,460.108 456.02,460.639 448.378,461.166 446.641,461.694 441.431,461.957 
		440.038,462.487 438.998,462.487 421.976,464.07 418.153,464.599 417.113,464.599 410.51,465.394 384.108,468.562 380.637,468.825 
		380.637,483.354 379.939,494.184 379.939,496.298 379.594,495.77 358.054,474.372 345.896,480.713 342.424,477.542 
		322.969,456.938 322.621,456.147 304.904,437.393 304.557,436.6 303.514,435.808 298.302,430.522 298.302,429.995 296.218,422.862 
		303.166,418.9 306.292,417.053 308.726,408.862 311.156,401.203 311.156,400.675 311.504,399.617 313.936,390.899 326.441,392.75 
		330.611,393.542 335.474,376.108 339.989,376.373 341.38,376.373 356.665,377.165 357.012,377.165 369.866,377.693 
		380.637,377.958 380.982,377.958 405.996,378.75 405.3,382.975 402.868,390.372 400.785,398.825 417.113,401.731 418.153,402.26 	
		"/>
</g>
<text transform="matrix(1.3072 0 0 1 391.583 148.8179)" fill="#FFFFFF" font-family="'Verdana'" font-size="13.2077">Adams</text>
<text transform="matrix(1.3072 0 0 1 433.4248 521.2529)" fill="#FFFFFF" font-family="'Verdana'" font-size="13.2077">Becket</text>
<text transform="matrix(1.3072 0 0 1 350.2656 212.8105)" fill="#FFFFFF" font-family="'Verdana'" font-size="13.2077">Cheshire</text>
<text transform="matrix(1.3072 0 0 1 380.6699 36.9873)" fill="#FFFFFF" font-family="'Verdana'" font-size="13.2077">Clarksbu</text>
<text transform="matrix(1.3072 0 0 1 455.9482 36.9873)" fill="#FFFFFF" font-family="'Verdana'" font-size="13.2077">r</text>
<text transform="matrix(1.3072 0 0 1 463.1992 36.9873)" fill="#FFFFFF" font-family="'Verdana'" font-size="13.2077">g</text>
<text transform="matrix(1.3072 0 0 1 494.4277 84.2788)" fill="#FFFFFF" font-family="'Verdana'" font-size="13.2077">Florida</text>
<text transform="matrix(1.3072 0 0 1 150.6162 598.6533)" fill="#FFFFFF" font-family="'Verdana'" font-size="13.2077">Great</text>
<text transform="matrix(1.3072 0 0 1 383.2031 360.938)" fill="#FFFFFF" font-family="'Verdana'" font-size="13.2077">Hinsdale</text>
<text transform="matrix(1.3072 0 0 1 276.0229 506.084)" fill="#FFFFFF" font-family="'Verdana'" font-size="13.2077">Lee</text>
<text transform="matrix(1.3072 0 0 1 227.6226 427.4863)" fill="#FFFFFF" font-family="'Verdana'" font-size="13.2077">Lenox</text>
<text transform="matrix(1.3072 0 0 1 258.2725 626.1494)" fill="#FFFFFF" font-family="'Verdana'" font-size="13.2077">Monterey</text>
<text transform="matrix(1.3072 0 0 1 267.311 719.5225)" fill="#FFFFFF" font-family="'Verdana'" font-size="13.2077">New</text>
<text transform="matrix(1.3072 0 0 1 399.3525 76.8828)" fill="#FFFFFF" font-family="'Verdana'" font-size="13.2077">NO</text>
<text transform="matrix(1.3072 0 0 1 425.9395 76.8828)" fill="#FFFFFF" font-family="'Verdana'" font-size="13.2077">R</text>
<text transform="matrix(1.3072 0 0 1 436.9912 76.8828)" fill="#FFFFFF" font-family="'Verdana'" font-size="13.2077">TH</text>
<text transform="matrix(1.3072 0 0 1 399.3545 91.6719)" fill="#FFFFFF" font-family="'Verdana'" font-size="13.2077">ADAMS</text>
<text transform="matrix(1.3072 0 0 1 435.4805 604.7197)" fill="#FFFFFF" font-family="'Verdana'" font-size="13.2077">Otis</text>
<text transform="matrix(1.3072 0 0 1 494.4277 360.938)" fill="#FFFFFF" font-family="'Verdana'" font-size="13.2077">Peru</text>
<text transform="matrix(1.3072 0 0 1 217.3589 340.8887)" fill="#FFFFFF" font-family="'Verdana'" font-size="13.2077">PITTSFIELD*</text>
<text transform="matrix(1.3072 0 0 1 369.8652 701.834)" fill="#FFFFFF" font-family="'Verdana'" font-size="13.2077">Sandisfield</text>
<text transform="matrix(1.3072 0 0 1 495.3223 181.8047)" fill="#FFFFFF" font-family="'Verdana'" font-size="13.2077">Savoy</text>
<text transform="matrix(1.3072 0 0 1 124.6201 723.8027)" fill="#FFFFFF" font-family="'Verdana'" font-size="13.2077">She</text>
<text transform="matrix(1.3072 0 0 1 157.77 723.8027)" fill="#FFFFFF" font-family="'Verdana'" font-size="13.2077">f</text>
<text transform="matrix(1.3072 0 0 1 163.2954 723.8027)" fill="#FFFFFF" font-family="'Verdana'" font-size="13.2077">field</text>
<text transform="matrix(1.3072 0 0 1 332.1035 435.9648)" fill="#FFFFFF" font-family="'Verdana'" font-size="13.2077">W</text>
<text transform="matrix(1.3072 0 0 1 347.6416 435.9648)" fill="#FFFFFF" font-family="'Verdana'" font-size="13.2077">ashington</text>
<text transform="matrix(1.3072 0 0 1 462.7998 267.8984)" fill="#FFFFFF" font-family="'Verdana'" font-size="13.2077">W</text>
<text transform="matrix(1.3072 0 0 1 479.0273 267.8984)" fill="#FFFFFF" font-family="'Verdana'" font-size="13.2077">indsor</text>
<text transform="matrix(0.9965 0 0 1 6.5005 102.9331)" font-family="'MyriadPro-Regular'" font-size="22.2587"> </text>
<text transform="matrix(0.9965 0 0 1 6.5005 102.9331)" font-family="'MyriadPro-Regular'" font-size="22.2587"> </text>
<text transform="matrix(0.9965 0 0 1 6.5005 102.9331)" font-family="'MyriadPro-Regular'" font-size="22.2587"> </text>
<text transform="matrix(0.9965 0 0 1 6.5005 102.9331)" font-family="'MyriadPro-Regular'" font-size="22.2587"> </text>
<text transform="matrix(0.9965 0 0 1 6.5005 102.9331)" font-family="'MyriadPro-Regular'" font-size="22.2587"> </text>
<text transform="matrix(0.293 -0.7413 0.9749 0.2228 31.6406 748.9355)" fill="#FFFFFF" font-family="'Verdana'" font-size="17.0639">Mount</text>
<text transform="matrix(0.293 -0.7413 0.9749 0.2228 41.4756 769.9395)" fill="#FFFFFF" font-family="'Verdana'" font-size="17.0639">W</text>
<text transform="matrix(0.293 -0.7413 0.9749 0.2228 45.9746 758.5557)" fill="#FFFFFF" font-family="'Verdana'" font-size="17.0639">ashington</text>
<text transform="matrix(0.2627 -0.7451 0.9799 0.1997 65.9707 665.4922)" fill="#FFFFFF" font-family="'Verdana'" font-size="17.1223">Egremont</text>
<text transform="matrix(0.3209 -0.7374 0.9698 0.244 188.9727 538.1836)" fill="#FFFFFF" font-family="'Verdana'" font-size="17.004">Stockbridge</text>
<text transform="matrix(0.9868 0.5026 -0.661 0.7504 289.8472 558.7217)" fill="#FFFFFF" font-family="'Verdana'" font-size="14.621">T</text>
<text transform="matrix(0.9868 0.5026 -0.661 0.7504 297.6348 562.6904)" fill="#FFFFFF" font-family="'Verdana'" font-size="14.621">yringham</text>
<text transform="matrix(0.9965 0 0 1 6.5005 102.9331)" font-family="'MyriadPro-Regular'" font-size="22.2587"> </text>
<text transform="matrix(1.3072 0 0 1 237.5088 735.6631)" fill="#FFFFFF" font-family="'Verdana'" font-size="13.2077">Marlborough</text>
<text transform="matrix(1.3072 0 0 1 133.2471 615.459)" fill="#FFFFFF" font-family="'Verdana'" font-size="13.2077">Barrington</text>
<text transform="matrix(0.9965 0 0 1 6.5005 102.9331)" font-family="'MyriadPro-Regular'" font-size="22.2587"> </text>
<text transform="matrix(0.9965 0 0 1 6.5005 102.9331)" font-family="'MyriadPro-Regular'" font-size="22.2587"> </text>
<g>
	<path fill="#FFFFFF" d="M96.815,570.261l-0.348,1.319l-3.822,0.265l-1.736,3.962l3.127,1.848l-0.348,0.793l-10.767-6.075
		l0.695-1.584L96.815,570.261z M91.257,571.58l-6.599,0.265l5.21,2.906L91.257,571.58z"/>
	<path fill="#FFFFFF" d="M98.206,567.619l-0.347,1.059l-12.506-2.644l0.347-1.056L98.206,567.619z"/>
	<path fill="#FFFFFF" d="M89.171,559.167L89.171,559.167c0,0.266-0.348,0.266-0.348,0.528c0,0.264-0.347,0.264-0.347,0.528
		c-0.347,0.528-0.347,0.793,0,1.058c0,0.264,0.695,0.529,1.39,0.529h0.347l1.042-2.115l1.042,0.264l-1.042,2.114l7.644,1.586
		l-0.347,1.056l-7.644-1.584l-0.347,0.793l-1.042-0.266l0.347-0.792h-0.347c-1.042-0.265-1.737-0.527-2.431-1.056
		c-0.347-0.529-0.695-1.323,0-1.852c0-0.264,0.347-0.526,0.347-0.526c0-0.266,0.347-0.266,0.347-0.528L89.171,559.167z"/>
	<path fill="#FFFFFF" d="M98.206,553.885c1.389,0.265,2.777,0.793,3.126,1.848c0.346,0.792,0.694,1.585,0.694,2.642
		c-0.348,0.792-1.042,1.848-2.083,2.113c-1.042,0.265-2.433,0.265-3.821,0.265c-1.39,0-2.781-0.793-3.127-1.848
		c-0.348-0.793-0.695-1.585-0.695-2.641c0.347-0.794,1.042-1.851,2.083-2.114C95.427,553.619,96.815,553.619,98.206,553.885z
		 M97.857,554.94c-1.042-0.263-2.083-0.263-2.778-0.263c-0.695,0.263-1.39,0.789-1.39,1.316c-0.347,0.53,0,1.059,0.348,1.585
		c0.347,0.528,1.39,0.794,2.433,1.059c1.042,0.264,2.083,0.264,2.778,0c0.694,0,1.389-0.791,1.389-1.32s0-1.057-0.347-1.585
		C99.942,555.996,98.9,555.468,97.857,554.94z"/>
	<path fill="#FFFFFF" d="M97.857,547.28L97.857,547.28c-0.348,0.265-0.348,0.265-0.348,0.528c0,0.265-0.347,0.265-0.347,0.527
		c-0.347,0.265-0.347,0.793,0,1.058c0,0.265,0,0.793,0.695,1.057l6.254,1.32l-0.347,1.057l-9.38-2.114l0.347-1.056l1.39,0.263
		c-0.347-0.527-0.695-1.056-0.695-1.587c0-0.526,0-0.788,0-1.055c0-0.265,0.348-0.264,0.348-0.528c0-0.264,0-0.264,0.347-0.264
		L97.857,547.28z"/>
	<path fill="#FFFFFF" d="M107.584,541.996l-0.347,1.059l-1.042-0.264c0,0.528,0.347,0.792,0.694,1.319c0,0.528,0,0.793,0,1.321
		c-0.347,0.791-1.041,1.583-2.083,1.583c-1.042,0.264-2.431,0.264-3.822,0c-0.694-0.265-1.389-0.265-2.083-0.791
		c-0.348-0.264-0.695-0.791-1.389-0.791c-0.347-0.528-0.347-0.793-0.694-1.321c0-0.527,0-0.791,0-1.319
		c0.347-0.265,0.347-0.528,0.347-0.793c0.347-0.263,0.694-0.528,0.694-0.79l-4.17-0.792l0.348-1.059L107.584,541.996z
		 M105.152,542.787l-5.21-1.32c-0.348,0.265-0.694,0.529-0.694,0.529c-0.347,0.264-0.347,0.528-0.347,0.791
		c-0.348,0.531,0,1.322,0.347,1.851c0.347,0.527,1.389,0.793,2.43,1.056c1.042,0.265,1.736,0.265,2.433,0.265
		c0.694,0,1.388-0.793,1.388-1.32c0.348-0.265,0.348-0.528,0-1.057C105.499,543.318,105.152,543.055,105.152,542.787z"/>
</g>
<text transform="matrix(0.294 -0.7411 0.9747 0.2236 161.9414 440.1963)" fill="#FFFFFF" font-family="'Verdana'" font-size="17.0617">Richmond</text>
<text transform="matrix(0.294 -0.7411 0.9747 0.2236 207.978 265.1826)" fill="#FFFFFF" font-family="'Verdana'" font-size="17.0617">Hancock</text>
<text transform="matrix(1.3072 0 0 1 248.1646 97.5806)" fill="#FFFFFF" font-family="'Verdana'" font-size="13.2077">Williamstown</text>
<text transform="matrix(0.2839 -0.7425 0.9764 0.2159 120.7598 500.3477)" fill="#FFFFFF" font-family="'Verdana'" font-size="17.0806">West</text>
<text transform="matrix(0.2839 -0.7425 0.9764 0.2159 132.3281 526.8369)" fill="#FFFFFF" font-family="'Verdana'" font-size="17.0806">Stockbridge</text>
<text transform="matrix(1.2691 0.1994 -0.2623 0.965 237.5127 267.4102)" fill="#FFFFFF" font-family="'Verdana'" font-size="13.4036">Lanesborough</text>
<text transform="matrix(1.0286 -0.4664 0.6171 0.7869 283.3174 163.3271)" fill="#FFFFFF" font-family="'Verdana'" font-size="14.4171">New</text>
<text transform="matrix(1.0286 -0.4664 0.6171 0.7869 281.5361 182.5894)" fill="#FFFFFF" font-family="'Verdana'" font-size="14.4171">Ashford</text>
<text transform="matrix(1.3072 0 0 1 358.3984 315.2056)" fill="#FFFFFF" font-family="'Verdana'" font-size="13.2077">Dalton</text>
</svg>
