<?xml version="1.0" encoding="utf-8"?>
<!-- Generator: Adobe Illustrator 16.0.0, SVG Export Plug-In . SVG Version: 6.00 Build 0)  -->
<!DOCTYPE svg PUBLIC "-//W3C//DTD SVG 1.1//EN" "http://www.w3.org/Graphics/SVG/1.1/DTD/svg11.dtd">
<svg version="1.1" id="Layer_1" xmlns="http://www.w3.org/2000/svg" xmlns:xlink="http://www.w3.org/1999/xlink" x="0px" y="0px"
	 width="612px" height="792px" viewBox="0 0 612 792" enable-background="new 0 0 612 792" xml:space="preserve">
<polyline fill="#008332" stroke="#FFFFFF" stroke-linecap="round" stroke-linejoin="round" stroke-miterlimit="10" points="
	265.068,644.393 266.446,644.127 268.861,644.127 271.965,643.335 275.068,643.335 278.514,642.805 280.239,642.805 
	280.928,642.276 282.997,642.276 285.755,642.014 309.89,664.477 316.44,663.419 328.164,661.568 329.198,661.568 350.231,658.662 
	352.298,673.196 354.022,689.845 354.711,694.074 355.057,695.66 355.057,697.773 355.4,699.359 356.091,705.438 356.436,706.495 
	357.124,710.722 357.124,712.572 357.815,720.235 358.505,721.294 358.848,727.108 359.883,732.921 359.883,735.564 
	360.229,738.471 361.261,746.399 362.642,756.177 363.677,762.783 364.02,768.596 364.365,772.825 365.398,779.696 351.954,779.431 
	343.334,778.902 332.301,778.639 324.026,778.375 315.063,778.375 310.234,777.845 300.926,777.845 299.891,777.582 
	290.927,777.582 286.101,777.053 282.997,777.053 277.825,776.791 275.413,776.791 258.863,776.524 258.519,776.524 
	244.381,775.997 242.312,775.997 241.967,775.731 233.349,775.731 233.349,775.469 230.936,756.44 230.59,754.325 230.245,750.626 
	229.556,747.192 228.522,740.849 225.075,712.044 225.075,709.666 239.208,694.602 238.177,689.845 237.486,687.204 
	237.141,682.975 236.797,678.218 235.763,673.196 235.418,671.348 235.418,668.703 234.729,665.27 234.384,664.739 234.038,660.512 
	234.038,658.926 233.349,656.813 233.004,652.849 232.314,652.056 243.002,652.056 243.002,649.149 242.312,647.034 
	241.967,644.393 241.967,642.805 240.934,638.313 240.934,637.521 241.967,638.313 243.691,639.105 244.381,639.371 
	245.761,639.898 245.761,640.164 247.14,640.428 248.52,640.428 250.244,640.956 251.622,641.749 253.691,641.749 255.414,642.014 
	256.103,642.276 256.103,642.805 257.83,644.127 259.208,644.92 259.896,645.186 262.655,644.92 264.034,644.393 265.068,644.393 
	"/>
<g id="Sheffield">
	<polygon fill="#008332" stroke="#FFFFFF" stroke-linecap="round" stroke-linejoin="round" stroke-miterlimit="10" points="
		223.35,775.731 220.247,775.204 216.798,775.204 201.628,774.676 199.561,774.676 191.286,774.41 180.942,774.41 180.596,774.146 
		169.563,773.618 150.257,773.354 148.878,773.354 131.983,773.089 117.848,772.825 109.229,772.032 95.782,772.032 84.404,772.032 
		86.817,767.275 86.817,766.483 88.196,760.405 93.367,737.678 96.126,729.483 101.642,713.365 92.678,694.074 90.608,690.109 
		87.163,683.768 86.128,682.18 94.747,682.18 102.332,682.18 118.881,682.18 118.192,680.068 118.192,678.218 117.848,676.367 
		117.848,675.576 116.812,670.554 116.468,666.854 115.778,664.477 125.778,661.568 130.603,659.719 130.258,657.076 
		135.777,657.076 135.432,654.17 134.743,651.263 139.567,651.792 174.391,651.792 180.251,651.792 208.87,651.792 214.385,652.056 
		232.314,652.056 233.004,653.111 233.349,657.076 234.038,659.191 234.038,660.777 234.384,665.004 234.729,665.27 
		235.418,668.969 235.418,671.611 235.763,673.196 236.797,678.218 237.141,683.239 237.486,687.467 238.177,690.109 
		239.208,694.867 225.075,709.931 225.075,712.31 228.522,741.113 229.556,747.192 230.245,750.892 230.59,754.591 230.936,756.706 
		233.349,775.731 233.349,775.997 	"/>
</g>
<g id="Mount_Washington">
	<polygon fill="#008332" stroke="#FFFFFF" stroke-linecap="round" stroke-linejoin="round" stroke-miterlimit="10" points="
		86.817,766.483 86.817,767.275 84.404,772.032 82.334,772.032 52.338,772.825 35.446,772.825 30.617,773.089 20.274,773.089 
		17.862,765.162 17.516,763.576 13.724,750.892 13.035,749.57 13.035,749.57 8.553,733.713 8.553,732.921 8.898,731.072 
		17.516,706.495 18.896,703.059 19.584,700.679 20.274,699.623 20.274,699.359 22.689,692.224 23.378,690.109 24.412,687.204 
		24.412,686.146 27.169,678.218 27.86,676.632 28.549,674.254 28.549,674.254 31.652,666.063 34.411,657.869 34.755,657.076 
		41.996,659.984 42.34,659.984 43.374,660.777 45.79,661.833 46.479,662.626 49.582,665.27 52.683,667.646 56.131,671.348 
		58.891,674.254 61.648,676.632 62.339,676.632 63.717,678.218 67.508,681.653 71.993,686.146 76.475,690.109 84.404,697.773 
		92.678,694.074 101.642,713.365 96.126,729.483 93.367,737.678 88.196,760.405 	"/>
</g>
<g id="Great_Barrington">
	<polyline fill="#008332" stroke="#FFFFFF" stroke-linecap="round" stroke-linejoin="round" stroke-miterlimit="10" points="
		199.561,543.706 222.661,543.706 228.177,544.234 250.244,544.234 257.137,544.499 289.202,544.499 282.997,551.634 
		282.997,552.163 279.549,556.391 276.791,560.091 275.413,561.412 273.343,564.318 272.999,564.847 271.621,566.697 
		268.861,569.869 266.102,573.833 264.034,575.946 260.241,580.968 255.414,586.78 251.622,591.538 250.933,592.595 
		246.105,598.938 243.691,601.845 243.002,602.901 242.312,603.166 241.278,604.752 239.9,606.337 239.9,615.586 239.553,620.343 
		239.553,626.157 239.9,628.271 239.9,631.18 240.589,634.613 240.934,636.199 240.934,638.578 241.967,642.805 241.967,644.393 
		242.312,647.299 243.002,649.149 243.002,652.056 214.385,652.056 208.87,651.792 180.251,651.792 174.391,651.792 
		139.567,651.792 134.743,651.263 114.4,651.263 114.055,649.94 114.055,647.299 113.71,646.506 113.71,643.863 112.676,638.843 
		111.641,628.536 111.296,624.836 111.296,623.514 110.607,621.929 108.539,622.458 108.539,616.644 109.229,616.378 
		109.917,615.851 109.229,611.886 109.229,610.037 108.884,608.715 108.539,598.146 108.539,585.461 107.849,579.646 
		127.157,579.646 126.812,574.89 124.743,566.697 123.364,557.976 122.675,552.163 120.604,542.913 148.189,542.913 
		149.567,542.649 150.257,542.913 174.391,542.913 180.596,543.442 193.354,543.442 199.561,543.706 	"/>
</g>
<g id="Monterey">
	<polyline fill="#008332" stroke="#FFFFFF" stroke-linecap="round" stroke-linejoin="round" stroke-miterlimit="10" points="
		265.068,644.393 264.034,644.393 262.655,645.186 259.896,645.186 259.208,645.186 257.83,644.127 256.103,642.805 
		256.103,642.543 255.414,642.014 253.691,641.749 251.622,641.749 250.244,641.221 248.52,640.428 247.14,640.428 245.761,640.164 
		245.761,639.898 244.381,639.371 243.691,639.105 241.967,638.578 240.934,637.521 240.934,636.199 240.589,634.613 239.9,631.18 
		239.9,628.271 239.553,626.157 239.553,620.343 239.9,615.586 239.9,606.337 241.278,604.752 242.312,603.166 243.002,602.901 
		243.691,601.845 246.105,598.938 250.933,592.595 251.622,591.538 255.414,586.78 260.241,580.968 264.034,575.946 
		266.102,573.833 268.861,569.869 271.621,566.697 272.999,564.847 273.343,564.318 275.413,561.412 278.169,562.997 
		280.583,564.056 281.963,564.847 282.997,565.111 307.132,576.739 326.783,586.518 330.23,588.367 335.403,590.745 
		339.197,592.595 374.019,609.773 375.742,610.566 375.742,615.059 376.431,628.006 376.431,630.649 374.019,638.843 
		371.262,648.355 371.605,654.434 357.124,655.755 349.884,656.284 350.231,658.926 329.198,661.833 328.164,661.833 
		316.44,663.684 309.89,664.739 285.755,642.014 282.997,642.543 280.928,642.543 280.239,642.805 278.514,642.805 275.068,643.335 
		271.965,643.335 268.861,644.127 266.446,644.127 265.068,644.393 	"/>
</g>
<g id="Otis">
	<polygon fill="#008332" stroke="#FFFFFF" stroke-linecap="round" stroke-linejoin="round" stroke-miterlimit="10" points="
		376.431,630.649 376.431,628.006 375.742,615.059 375.742,604.223 376.431,593.388 376.431,573.833 376.777,555.07 378.155,555.07 
		397.12,552.163 413.668,550.048 415.393,550.048 416.081,549.52 419.186,549.52 419.875,550.048 419.875,551.105 417.806,552.428 
		417.806,554.012 417.462,554.012 417.806,554.276 418.151,555.598 419.186,556.391 419.875,558.241 420.22,558.505 420.22,559.033 
		419.875,559.826 420.22,559.826 425.737,559.298 429.185,559.033 434.7,558.241 436.078,558.241 438.493,557.976 446.079,557.448 
		446.769,557.448 448.146,557.183 449.87,557.183 449.87,558.505 450.216,561.146 451.94,569.604 460.215,568.282 464.006,568.018 
		465.387,568.018 471.248,567.227 473.314,566.962 476.764,566.697 480.557,566.168 488.484,565.377 490.555,565.111 
		499.866,564.056 504.69,563.263 505.036,563.263 509.174,562.997 509.862,567.227 517.448,566.697 522.963,566.168 
		525.378,566.168 530.549,565.904 531.584,565.377 539.857,564.847 539.512,566.697 537.1,574.097 534.343,584.402 533.997,586.78 
		533.997,587.311 533.308,588.367 530.896,597.354 519.861,636.199 519.861,637.257 518.138,643.863 517.448,645.713 
		517.448,646.77 516.76,648.355 515.379,652.849 514.001,657.869 514.001,658.396 513.654,659.719 513.654,659.984 512.275,665.004 
		511.586,667.646 511.242,668.703 511.242,669.496 508.828,668.969 508.483,668.969 505.036,668.703 504.69,668.703 502.277,668.44 
		501.24,668.44 498.141,667.646 495.727,667.646 489.866,666.325 484.005,665.797 480.9,665.27 480.557,665.27 475.73,664.739 
		472.626,664.477 472.972,665.004 473.314,666.325 473.314,668.44 471.938,668.969 471.938,669.762 472.626,671.611 
		472.972,672.404 473.314,672.933 473.314,673.196 472.626,673.196 469.867,673.725 467.8,674.254 465.387,674.783 462.974,674.254 
		462.282,667.382 461.593,663.153 461.249,660.777 460.904,656.284 460.215,653.904 459.181,647.827 458.49,641.221 
		457.456,633.557 457.11,628.536 456.422,625.629 456.422,624.836 456.077,622.458 456.077,621.4 454.697,621.665 453.318,621.665 
		451.94,621.929 450.904,621.929 448.146,622.458 447.457,622.458 445.045,622.722 443.664,622.722 442.286,623.251 
		441.251,623.251 438.493,623.514 436.078,623.514 436.078,623.779 434.011,623.779 432.976,624.307 427.805,624.57 
		425.047,624.836 421.599,625.365 421.253,625.365 418.84,625.629 416.081,626.157 405.049,627.479 403.325,628.006 
		400.222,628.271 392.293,629.328 391.259,629.328 	"/>
</g>
<g id="Becket">
	<polygon fill="#008332" stroke="#FFFFFF" stroke-linecap="round" stroke-linejoin="round" stroke-miterlimit="10" points="
		521.929,487.681 523.652,487.153 523.998,486.888 525.033,487.153 525.378,487.681 526.411,487.946 526.411,488.21 527.102,488.21 
		528.137,487.946 528.825,487.153 529.17,486.888 529.515,485.832 530.205,485.304 530.549,485.304 532.619,486.888 
		534.688,489.796 536.066,490.852 536.756,491.646 537.1,491.91 538.134,492.174 539.169,492.174 540.547,491.91 541.236,491.91 
		541.928,491.117 541.928,489.796 542.271,489.267 543.306,489.003 544.341,488.21 544.341,486.888 544.686,486.625 
		545.029,486.625 545.72,485.832 546.064,485.832 546.064,484.774 546.754,484.246 548.133,483.717 547.098,515.43 547.098,530.229 
		546.754,535.777 546.754,551.105 543.651,550.578 543.306,552.163 542.271,555.598 539.857,564.318 539.857,564.847 
		531.584,565.377 530.549,565.904 525.378,566.168 522.963,566.168 517.448,566.697 509.862,567.227 509.174,562.997 
		505.036,563.263 504.69,563.263 499.866,564.056 490.555,565.111 488.484,565.377 480.557,566.168 476.764,566.697 
		473.314,566.962 471.248,567.227 465.387,568.018 464.006,568.018 460.215,568.282 451.94,569.604 450.216,561.146 449.87,558.505 
		449.87,557.183 448.146,557.183 446.769,557.448 446.079,557.448 438.493,557.976 436.078,558.241 434.7,558.241 429.185,559.033 
		425.737,559.298 420.22,559.826 419.875,559.826 420.22,559.033 420.22,558.505 419.875,558.241 419.186,556.391 418.151,555.598 
		417.806,554.276 417.462,554.012 417.806,554.012 417.806,552.428 419.875,551.105 419.875,550.048 419.186,549.52 416.081,549.52 
		415.393,550.048 413.668,550.048 397.12,552.163 378.155,555.07 376.777,555.07 376.777,554.012 376.431,552.163 376.777,541.591 
		377.123,518.071 377.123,511.993 377.813,507.766 377.813,501.688 378.155,492.702 378.155,490.059 378.847,479.225 
		378.847,464.69 382.292,464.426 408.497,461.254 415.049,460.461 416.081,460.461 419.875,459.934 436.77,458.349 437.803,458.349 
		439.183,457.819 444.354,457.555 446.079,457.027 453.664,456.499 455.042,455.969 456.077,455.969 465.387,454.912 
		480.212,453.591 480.9,464.69 480.9,465.219 481.59,465.483 481.936,466.275 484.694,467.334 484.694,467.597 488.142,469.183 
		488.484,469.183 489.175,469.447 489.866,469.711 492.968,471.296 493.658,472.089 494.348,472.619 494.691,473.411 
		495.727,473.675 496.071,473.675 496.761,473.411 497.449,473.411 498.484,473.675 498.83,474.204 498.83,474.997 499.52,476.053 
		499.866,476.318 500.897,476.318 502.277,476.053 502.621,475.26 503.656,474.997 505.036,474.997 505.726,475.26 506.069,476.053 
		506.415,476.582 506.069,477.111 506.069,478.432 506.415,480.282 507.104,481.074 508.483,481.867 508.828,482.133 
		509.862,482.396 510.897,483.188 512.275,484.774 512.275,485.039 514.689,486.888 515.379,487.153 516.414,487.946 
		519.172,488.738 520.205,488.738 521.585,487.681 	"/>
</g>
<g id="Lee">
	<polygon fill="#008332" stroke="#FFFFFF" stroke-linecap="round" stroke-linejoin="round" stroke-miterlimit="10" points="
		367.468,513.315 364.365,513.579 362.296,513.579 345.747,516.223 344.712,516.223 334.024,517.544 325.063,518.864 
		324.37,518.864 307.822,520.979 299.546,531.55 294.72,537.63 291.271,541.328 289.202,544.499 257.137,544.499 250.244,544.234 
		240.934,544.234 240.934,522.036 241.278,519.13 241.278,487.153 241.967,483.981 241.967,471.561 249.899,471.561 
		249.553,470.505 249.553,469.711 252.655,469.711 252.655,468.125 253.347,467.334 261.622,467.334 265.413,467.597 
		289.546,467.597 289.546,466.275 289.202,464.69 289.202,456.762 288.514,455.705 288.514,454.119 288.169,452.005 
		288.169,450.685 288.514,449.627 288.514,449.099 289.202,448.042 289.202,447.248 288.514,446.984 288.514,445.662 
		288.169,445.662 288.169,444.342 288.514,444.077 289.546,443.018 289.546,442.756 291.271,441.17 292.994,441.17 293.34,440.906 
		293.686,440.906 294.375,440.378 294.375,440.113 294.72,440.113 294.72,439.849 295.063,439.32 295.063,439.058 295.754,438.527 
		295.754,438.264 296.099,437.999 296.099,437.471 295.063,437.471 294.72,437.999 294.375,437.999 293.686,438.264 293.34,438.527 
		293.34,437.206 293.686,436.941 293.686,435.093 293.34,435.093 292.994,434.563 292.305,434.3 292.305,432.186 292.994,431.656 
		292.994,431.393 293.34,431.393 294.72,428.751 294.72,428.485 293.34,428.485 293.34,425.844 292.994,425.578 292.994,424.521 
		293.34,423.465 293.34,421.879 293.686,422.672 294.72,423.729 297.132,425.844 297.132,426.371 302.304,431.656 303.34,432.449 
		303.685,433.243 321.268,452.005 321.612,452.797 340.921,473.411 344.369,476.582 356.436,470.24 377.813,491.646 
		378.155,492.174 378.155,492.702 377.813,501.688 377.813,507.766 377.123,511.993 368.156,513.052 	"/>
</g>
<g id="West_Stockbridge">
	<polyline fill="#008332" stroke="#FFFFFF" stroke-linecap="round" stroke-linejoin="round" stroke-miterlimit="10" points="
		107.849,450.685 108.539,449.627 110.262,444.342 110.607,443.284 110.607,442.756 111.296,442.229 111.296,441.436 
		111.641,440.378 176.46,440.378 184.736,440.113 185.425,440.378 185.77,440.113 184.045,442.756 182.321,444.342 180.596,446.984 
		178.528,450.154 177.15,452.005 175.771,453.856 175.771,455.705 175.427,457.819 175.427,459.934 174.736,462.841 
		174.736,466.275 174.391,469.711 174.047,475.26 171.29,475.525 168.185,475.525 167.496,476.053 160.6,476.318 160.255,494.553 
		159.911,510.408 159.911,522.3 159.222,532.077 159.222,542.913 150.257,542.913 149.567,542.649 148.189,542.913 120.604,542.913 
		123.019,527.322 114.055,523.093 106.814,519.394 106.469,506.18 104.746,505.388 103.365,505.388 89.919,501.688 102.676,465.483 
		103.365,463.897 103.71,462.841 105.435,457.027 107.849,450.685 	"/>
</g>
<g id="Windsor">
	<polygon fill="#008332" stroke="#FFFFFF" stroke-linecap="round" stroke-linejoin="round" stroke-miterlimit="10" points="
		563.648,309.565 562.613,314.059 562.269,314.059 560.89,313.531 558.822,313.531 548.822,311.68 541.928,310.623 509.862,304.809 
		476.418,299.26 464.352,297.41 451.248,295.295 447.111,293.974 446.769,293.974 439.527,292.916 438.15,292.916 433.321,292.124 
		429.528,291.331 425.737,290.803 426.771,288.954 427.115,286.047 424.012,285.253 423.323,284.988 420.564,284.196 
		422.633,277.325 429.185,253.012 434.011,237.422 436.77,226.585 438.15,221.565 445.733,222.887 454.007,224.208 456.077,217.866 
		456.077,217.337 457.456,212.316 480.557,216.015 498.484,218.922 499.866,219.45 516.76,222.623 530.205,224.736 531.584,224.736 
		536.066,225.528 544.341,226.851 548.822,227.907 557.098,229.229 570.545,231.343 573.646,232.136 575.027,232.136 
		576.749,232.399 577.095,232.399 577.784,232.664 578.818,232.664 581.922,233.456 580.887,236.363 578.13,249.049 
		573.646,267.811 572.612,271.511 571.234,277.325 570.199,279.968 569.164,283.667 569.164,284.196 568.821,286.839 
		568.821,287.367 568.129,289.482 566.406,296.617 566.063,299.523 565.372,301.901 565.027,302.694 563.648,308.772 	"/>
</g>
<g id="Hinsdale">
	<polygon fill="#008332" stroke="#FFFFFF" stroke-linecap="round" stroke-linejoin="round" stroke-miterlimit="10" points="
		466.076,336.785 467.454,336.785 466.076,340.748 464.352,345.507 462.628,351.319 462.974,351.319 462.974,351.583 
		463.66,351.583 463.66,352.113 464.006,352.113 464.006,352.377 464.352,352.642 465.041,353.434 465.387,353.962 465.387,354.226 
		466.419,354.226 466.419,354.492 466.076,355.02 466.076,355.284 466.419,355.284 466.765,355.548 466.765,356.341 
		466.419,356.341 466.765,356.605 467.454,357.397 467.454,358.19 466.765,358.19 466.419,358.454 466.076,359.249 465.041,359.513 
		464.352,360.304 464.006,360.304 463.66,360.833 462.282,360.833 462.282,360.041 461.593,359.513 460.904,359.513 
		459.869,360.304 459.869,360.833 460.904,361.361 462.628,362.156 462.974,362.42 463.66,362.42 464.352,364.799 464.352,365.855 
		464.006,366.912 461.249,376.954 458.49,376.424 455.731,387.524 454.697,391.224 453.664,393.074 451.248,403.116 
		450.904,404.174 449.87,403.909 435.734,401.266 431.598,400.473 428.839,400.21 428.15,400.21 416.081,398.095 415.049,397.566 
		398.844,394.66 400.911,386.202 403.325,378.802 404.016,374.575 379.19,373.783 378.847,373.783 368.156,373.518 371.262,363.213 
		371.95,361.098 378.847,337.841 380.568,330.707 381.604,328.064 384.362,328.593 403.67,329.121 411.602,329.121 416.427,329.649 
		418.151,320.929 421.943,305.866 422.633,304.545 424.012,298.73 425.737,290.803 429.528,291.331 433.321,292.124 438.15,292.916 
		439.527,292.916 446.769,293.974 447.111,293.974 451.248,295.295 464.352,297.41 476.418,299.26 471.938,312.472 470.556,312.208 
		465.387,329.121 465.041,330.707 464.006,333.878 463.66,335.464 466.419,335.464 	"/>
</g>
<g id="Dalton">
	<polygon fill="#008332" stroke="#FFFFFF" stroke-linecap="round" stroke-linejoin="round" stroke-miterlimit="10" points="
		377.123,257.505 381.604,249.842 387.121,241.121 389.878,237.157 392.982,232.136 403.67,233.456 415.393,235.043 
		416.081,235.307 434.011,237.422 429.185,253.012 422.633,277.325 420.564,284.196 423.323,284.988 424.012,285.253 
		427.115,286.047 426.771,288.954 425.737,290.803 424.012,298.73 422.633,304.545 421.943,305.866 418.151,320.929 
		416.427,329.649 411.602,329.121 403.67,329.121 384.362,328.593 381.604,328.064 380.568,330.707 378.847,337.841 371.95,361.098 
		371.262,363.213 368.156,373.518 355.4,372.99 355.057,372.99 339.887,372.198 338.506,372.198 334.024,371.932 334.714,369.025 
		336.783,361.891 336.783,361.098 337.128,358.983 338.506,354.492 339.887,349.734 340.575,348.412 340.575,347.355 
		340.921,346.563 340.921,345.507 342.3,341.276 344.369,333.878 344.712,332.821 345.059,331.236 345.747,329.649 346.093,327.008 
		347.125,323.043 347.471,322.25 348.16,319.079 349.884,313 350.231,310.357 350.231,309.301 354.711,294.766 355.057,293.446 
		371.95,265.434 375.054,260.942 	"/>
</g>
<g id="Richmond">
	<polygon fill="#008332" stroke="#FFFFFF" stroke-linecap="round" stroke-linejoin="round" stroke-miterlimit="10" points="
		205.421,399.417 206.455,407.08 207.144,409.987 207.492,411.572 198.183,411.572 198.183,417.387 198.527,419.766 198.527,421.35 
		197.146,421.35 193.698,421.615 194.733,426.637 195.078,429.278 196.113,435.355 196.113,437.206 196.458,440.113 185.77,440.113 
		185.425,440.378 184.736,440.113 176.46,440.378 111.641,440.378 116.812,426.371 117.503,424.786 120.604,414.743 
		122.675,410.251 122.675,409.723 124.053,405.758 125.434,402.324 125.778,401.003 126.812,398.359 127.157,397.566 
		129.225,392.281 129.569,390.432 130.949,386.467 132.328,383.297 135.432,374.575 135.432,374.047 138.189,366.912 
		140.604,359.513 140.948,359.249 148.534,360.833 149.567,361.098 150.257,361.098 153.358,361.361 176.805,364.799 
		183.356,365.855 188.182,366.912 189.216,367.176 189.561,367.176 190.94,367.704 191.975,367.704 194.733,367.968 
		196.113,368.232 196.458,368.232 198.527,368.761 210.249,370.611 216.109,371.668 234.384,374.575 239.9,375.104 239.553,382.769 
		228.177,382.504 220.247,382.769 219.212,386.731 217.834,396.246 205.076,396.246 	"/>
</g>
<g id="Pittsfield">
	<polygon fill="#008332" stroke="#FFFFFF" stroke-linecap="round" stroke-linejoin="round" stroke-miterlimit="10" points="
		332.989,290.01 334.024,290.01 353.332,292.916 355.057,293.446 354.711,294.766 350.231,309.301 350.231,310.357 349.884,313 
		348.16,319.079 347.471,322.25 347.125,323.043 346.093,327.008 345.747,329.649 345.059,331.236 344.712,332.821 344.369,333.878 
		342.3,341.276 340.921,345.507 340.921,346.563 340.575,347.355 340.575,348.412 339.887,349.734 338.506,354.492 337.128,358.983 
		336.783,361.098 336.783,361.891 334.714,369.025 334.024,371.932 329.198,389.373 325.063,388.581 312.648,386.731 
		301.271,384.882 293.686,383.561 287.135,382.504 280.239,381.447 278.514,381.447 275.068,380.654 267.482,379.597 239.9,375.104 
		234.384,374.575 216.109,371.668 210.249,370.611 198.527,368.761 196.458,368.232 196.113,368.232 194.733,367.968 
		191.975,367.704 190.94,367.704 189.561,367.176 189.216,367.176 188.182,366.912 191.975,352.642 197.492,329.649 
		199.561,322.778 199.905,321.194 201.628,312.208 205.076,299.26 206.11,296.089 207.836,288.16 208.525,284.724 213.696,285.253 
		214.041,282.345 214.385,282.082 216.798,273.625 221.627,274.417 221.972,274.417 237.486,276.269 248.52,278.383 
		255.069,278.911 259.208,279.44 271.621,281.025 274.379,281.289 275.757,282.082 293.686,283.932 294.375,284.196 
		299.546,284.988 303.685,286.047 320.579,288.16 331.955,290.01 	"/>
</g>
<g id="Hancock">
	<polyline fill="#008332" stroke="#FFFFFF" stroke-linecap="round" stroke-linejoin="round" stroke-miterlimit="10" points="
		179.218,250.899 181.977,244.026 184.045,237.95 185.425,233.984 198.527,196.988 202.662,185.89 205.421,177.96 207.144,173.732 
		210.593,163.162 212.317,159.198 216.453,147.834 219.212,139.642 221.972,130.922 227.832,131.45 252.311,131.979 
		256.448,132.771 269.55,133.035 267.827,139.642 257.483,177.696 274.032,179.811 261.277,200.952 258.863,204.387 
		258.519,204.916 258.519,205.708 237.486,238.742 236.797,241.121 227.143,255.919 223.35,261.732 218.178,270.454 
		218.178,270.454 216.798,273.625 214.385,282.082 214.041,282.345 213.696,285.253 208.525,284.724 207.836,288.16 206.11,296.089 
		205.076,299.26 201.628,312.208 199.905,321.194 199.561,322.778 197.492,329.649 191.975,352.642 188.182,366.912 
		183.356,365.855 176.805,364.799 153.358,361.361 150.257,361.098 149.567,361.098 148.534,360.833 140.948,359.249 
		141.292,357.397 141.981,356.341 142.326,355.02 145.775,345.771 146.12,344.713 146.12,343.92 148.534,337.841 149.567,334.672 
		150.257,332.028 155.083,319.079 155.083,318.287 155.428,318.022 160.6,304.016 160.6,302.694 162.325,299.523 162.669,297.41 
		163.703,296.089 168.875,280.232 169.219,279.44 170.253,277.325 173.357,266.227 174.047,265.169 174.391,264.375 
		176.805,257.771 179.218,250.899 	"/>
</g>
<g id="Lanesborough">
	<polyline fill="#008332" stroke="#FFFFFF" stroke-linecap="round" stroke-linejoin="round" stroke-miterlimit="10" points="
		281.618,181.662 282.307,181.662 282.997,181.662 305.407,185.624 316.095,187.21 324.37,188.531 325.063,188.531 327.818,189.589 
		332.989,190.118 334.024,190.118 332.989,191.703 328.507,198.31 324.37,205.444 326.439,205.708 330.923,205.973 325.751,214.958 
		331.955,216.015 328.164,222.623 322.992,231.079 336.783,233.456 345.747,234.514 346.093,234.514 348.16,234.514 
		349.539,235.043 348.85,235.835 345.747,240.329 339.541,250.37 338.506,251.163 337.128,253.541 335.748,255.655 334.714,256.977 
		340.575,257.771 343.334,258.299 344.369,258.299 348.16,258.827 347.125,260.942 354.022,262.526 371.95,265.434 355.057,293.446 
		353.332,292.916 334.024,290.01 332.989,290.01 331.955,290.01 320.579,288.16 303.685,286.047 299.546,284.988 294.375,284.196 
		293.686,283.932 275.757,282.082 274.379,281.289 271.621,281.025 259.208,279.44 255.069,278.911 248.52,278.383 237.486,276.269 
		221.972,274.417 221.627,274.417 216.798,273.625 218.178,270.454 218.178,270.454 223.35,261.732 227.143,255.919 
		236.797,241.121 237.486,238.742 258.519,205.708 258.519,204.916 258.863,204.387 261.277,200.952 274.032,179.811 
		280.928,180.868 281.618,181.662 	"/>
</g>
<g id="Cheshire">
	<polyline fill="#008332" stroke="#FFFFFF" stroke-linecap="round" stroke-linejoin="round" stroke-miterlimit="10" points="
		335.403,181.662 336.093,178.49 330.923,160.519 335.403,162.105 352.298,166.069 362.985,168.976 377.123,170.033 
		389.534,170.033 391.948,170.033 395.05,170.562 400.222,170.562 411.602,171.089 420.22,171.089 422.979,171.62 424.356,171.62 
		432.976,171.884 440.906,172.412 448.492,172.676 458.834,172.94 458.834,173.732 460.904,184.831 461.249,186.153 462.974,196.46 
		447.457,209.41 446.769,209.938 447.457,210.202 448.146,210.202 457.456,212.316 456.077,217.337 456.077,217.866 
		454.007,224.208 445.733,222.887 438.15,221.565 436.77,226.585 434.011,237.422 416.081,235.307 415.393,235.043 403.67,233.456 
		392.982,232.136 389.878,237.157 387.121,241.121 381.604,249.842 377.123,257.505 375.054,260.942 371.95,265.434 
		354.022,262.526 347.125,260.942 348.16,258.827 344.369,258.299 343.334,258.299 340.575,257.771 334.714,256.977 
		335.748,255.655 337.128,253.541 338.506,251.163 339.541,250.37 345.747,240.329 348.85,235.835 349.539,235.043 348.16,234.514 
		346.093,234.514 345.747,234.514 336.783,233.456 322.992,231.079 328.164,222.623 331.955,216.015 325.751,214.958 
		330.923,205.973 326.439,205.708 324.37,205.444 328.507,198.31 332.989,191.703 334.024,190.118 335.403,181.662 	"/>
</g>
<g id="Adams">
	<polyline fill="#008332" stroke="#FFFFFF" stroke-linecap="round" stroke-linejoin="round" stroke-miterlimit="10" points="
		366.778,122.464 368.156,100.795 375.399,101.587 380.914,101.587 398.498,102.646 399.533,102.646 405.394,102.909 
		416.081,103.965 428.839,104.495 431.941,104.495 435.389,104.759 439.871,104.759 441.251,105.289 475.385,107.138 480.9,107.402 
		480.9,112.687 479.177,139.642 478.142,147.834 478.142,153.914 477.797,156.026 476.764,173.732 458.834,172.94 448.492,172.676 
		440.906,172.412 432.976,171.884 424.356,171.62 422.979,171.62 420.22,171.089 411.602,171.089 400.222,170.562 395.05,170.562 
		391.948,170.033 389.534,170.033 377.123,170.033 362.985,168.976 364.365,154.441 366.09,139.642 366.433,135.678 366.433,129.6 
		366.778,122.464 	"/>
</g>
<g id="North_Adams">
	<polygon fill="#008332" stroke="#FFFFFF" stroke-linecap="round" stroke-linejoin="round" stroke-miterlimit="10" points="
		370.227,74.368 370.227,72.254 360.229,71.726 360.229,71.196 360.918,61.948 360.918,60.89 361.261,55.87 361.261,52.962 
		361.606,52.169 361.606,47.15 362.296,43.448 371.95,43.978 390.913,44.77 416.081,45.827 420.22,46.092 427.115,46.092 
		428.839,46.356 429.528,46.356 434.356,46.092 437.803,46.092 438.493,46.356 443.664,46.356 446.079,46.885 445.733,46.885 
		450.216,46.885 456.422,47.15 460.904,47.15 462.974,47.678 470.213,47.678 472.626,47.942 480.557,47.942 480.9,48.207 
		485.383,48.207 484.005,60.363 484.005,61.684 482.971,84.409 482.281,91.017 481.59,104.495 480.9,107.402 475.385,107.138 
		441.251,105.289 439.871,104.759 435.389,104.759 431.941,104.495 428.839,104.495 416.081,103.965 405.394,102.909 
		399.533,102.646 398.498,102.646 380.914,101.587 375.399,101.587 368.156,100.795 369.191,89.168 	"/>
</g>
<g id="Florida">
	<polyline fill="#008332" stroke="#FFFFFF" stroke-linecap="round" stroke-linejoin="round" stroke-miterlimit="10" points="
		484.005,61.684 484.005,60.363 485.383,48.207 486.072,44.77 497.106,11.738 521.929,12.002 523.998,12.002 523.998,31.557 
		523.652,54.548 526.411,54.548 533.997,55.077 548.822,55.87 550.204,55.87 561.579,55.077 563.648,54.813 571.923,54.02 
		584.335,53.49 597.091,51.905 602.264,51.905 602.607,52.169 602.607,53.754 601.229,55.604 601.229,55.87 600.538,56.398 
		599.506,56.928 598.471,57.984 598.126,59.041 597.438,59.041 598.126,59.834 598.471,60.363 598.816,60.89 599.85,61.948 
		599.85,63.269 599.506,65.383 597.438,67.498 596.747,68.291 592.954,68.291 591.576,69.083 589.854,70.14 588.472,70.668 
		585.37,70.668 580.887,69.611 578.818,69.611 576.749,69.611 575.371,69.611 575.027,70.14 575.027,70.668 573.992,72.254 
		573.646,73.311 573.646,73.575 572.958,74.368 572.612,74.898 572.612,76.482 572.958,77.011 572.958,77.541 573.992,78.333 
		573.646,78.333 573.992,78.333 573.992,80.182 573.646,80.182 569.164,80.182 566.751,80.182 564.683,80.182 562.958,80.182 
		562.269,80.446 560.89,80.974 559.854,80.974 559.165,81.239 559.165,82.032 560.2,84.939 560.2,85.468 559.854,85.732 
		555.718,85.732 554.683,85.468 553.65,85.732 553.305,85.997 552.615,85.997 552.615,86.789 553.305,87.317 553.994,88.111 
		556.063,89.96 558.477,91.809 560.2,93.659 561.235,93.924 561.579,93.924 562.613,94.453 563.992,94.982 565.372,95.511 
		567.44,96.039 568.129,96.039 569.854,96.831 570.545,97.624 571.234,98.681 572.612,99.474 572.612,99.738 572.958,100.002 
		573.992,100.53 574.336,100.002 575.371,100.002 576.405,99.474 576.749,98.681 577.095,98.681 579.163,97.095 580.543,96.831 
		581.576,96.567 583.3,96.831 584.681,96.831 586.059,96.567 587.094,96.039 587.784,94.982 587.784,94.718 588.129,94.453 
		588.472,93.659 589.161,93.659 589.854,93.396 590.885,93.396 593.644,93.924 595.713,94.718 596.058,94.982 596.058,96.831 
		596.747,97.889 596.747,98.681 596.058,99.738 596.058,100.53 595.024,101.852 595.024,107.402 595.713,107.402 595.713,107.666 
		596.058,108.722 596.747,109.251 596.747,110.309 597.091,110.309 597.091,110.573 597.438,111.365 598.471,111.365 
		600.538,121.408 599.506,122.201 598.471,122.201 596.747,121.408 587.784,121.408 587.094,122.201 587.094,122.464 
		586.748,122.464 586.748,122.464 585.37,123.523 584.335,124.051 582.955,126.166 582.955,128.015 583.3,128.807 583.3,130.657 
		581.576,131.45 580.196,131.45 578.818,130.393 578.818,130.129 577.784,129.071 576.749,128.807 576.405,128.807 575.714,129.071 
		575.714,129.6 575.371,130.129 575.371,130.922 575.027,131.713 573.646,131.713 573.646,131.45 572.612,130.393 571.234,129.6 
		570.545,128.278 569.854,127.75 569.854,127.486 568.129,126.166 566.406,125.372 565.027,125.108 564.683,125.108 
		563.648,125.372 563.648,126.166 562.958,126.166 562.958,126.694 561.579,126.958 561.579,128.015 562.269,128.278 
		562.269,129.071 559.854,129.071 558.822,130.129 557.441,130.393 553.65,130.922 552.27,130.922 551.236,130.657 550.892,130.657 
		550.204,130.129 549.513,129.071 548.479,129.071 548.133,128.807 547.443,128.278 548.133,127.486 548.133,126.166 
		547.443,125.372 543.651,124.051 542.961,123.523 541.236,122.464 539.857,122.464 539.169,122.464 539.169,122.201 
		538.479,120.879 538.479,119.822 539.169,119.029 539.169,118.236 538.479,118.236 536.756,117.18 535.721,116.387 
		536.066,115.331 522.963,115.065 509.174,114.537 498.484,113.48 497.106,113.48 480.9,112.422 480.9,107.402 481.59,104.495 
		482.281,91.017 482.971,84.409 484.005,61.684 	"/>
</g>
<g id="Clarksburg">
	<polygon fill="#008332" stroke="#FFFFFF" stroke-linecap="round" stroke-linejoin="round" stroke-miterlimit="10" points="
		452.629,10.68 470.556,10.944 475.039,10.944 482.281,11.208 497.106,11.738 486.072,44.77 485.383,48.207 480.9,48.207 
		480.557,47.942 472.626,47.942 470.213,47.678 462.974,47.678 460.904,47.15 456.422,47.15 450.216,46.885 445.733,46.885 
		446.079,46.885 443.664,46.356 438.493,46.356 437.803,46.092 434.356,46.092 429.528,46.356 428.839,46.356 427.115,46.092 
		420.22,46.092 416.081,45.827 390.913,44.77 371.95,43.978 374.364,8.831 397.12,9.095 416.081,9.888 424.356,9.888 	"/>
</g>
<g id="Williamstown">
	<polygon fill="#008332" stroke="#FFFFFF" stroke-linecap="round" stroke-linejoin="round" stroke-miterlimit="10" points="
		366.433,129.6 366.433,135.678 352.643,135.678 348.85,135.678 334.714,134.621 326.439,134.621 310.234,134.093 308.856,134.093 
		282.997,133.565 269.55,133.035 256.448,132.771 252.311,131.979 227.832,131.45 221.972,130.922 236.108,93.396 250.244,52.698 
		252.311,47.942 253.691,42.92 255.414,38.164 256.448,36.05 257.137,33.671 257.483,32.613 257.83,31.557 257.83,31.293 
		266.792,6.716 282.997,6.98 287.479,7.244 300.235,7.244 320.233,7.772 321.268,7.772 322.646,8.038 336.783,8.038 348.506,8.302 
		349.539,8.302 363.677,8.831 374.364,8.831 371.95,43.978 362.296,43.448 361.606,47.15 361.606,52.169 361.261,52.962 
		361.261,55.87 360.918,60.89 360.918,61.948 360.229,71.196 360.229,71.726 370.227,72.254 370.227,74.368 369.191,89.168 
		368.156,100.795 366.778,122.464 	"/>
</g>
<g id="Tyringham">
	<polyline fill="#008332" stroke="#FFFFFF" stroke-linecap="round" stroke-linejoin="round" stroke-miterlimit="10" points="
		377.123,518.071 376.777,541.591 376.431,552.163 376.777,554.012 376.777,555.07 376.431,573.833 376.431,593.388 
		375.742,604.223 375.742,610.83 375.742,610.566 374.019,609.773 339.197,592.595 335.403,590.745 330.23,588.367 326.783,586.518 
		307.132,576.739 282.997,565.111 281.963,564.847 280.583,564.056 278.169,562.997 275.413,561.412 276.791,560.091 
		279.549,556.391 282.997,552.163 282.997,551.634 289.202,544.499 291.271,541.328 294.72,537.63 299.546,531.55 307.822,520.979 
		324.37,518.864 325.063,518.864 334.024,517.544 344.712,516.223 345.747,516.223 362.296,513.579 364.365,513.579 
		367.468,513.315 368.156,513.052 377.123,511.993 377.123,518.071 	"/>
</g>
<g id="Sandisfield">
	<polygon fill="#008332" stroke="#FFFFFF" stroke-linecap="round" stroke-linejoin="round" stroke-miterlimit="10" points="
		392.293,629.328 400.222,628.271 403.325,628.006 405.049,627.479 416.081,626.157 418.84,625.629 421.253,625.365 
		421.599,625.365 425.047,624.836 427.805,624.57 432.976,624.307 434.011,623.779 436.078,623.779 436.078,623.514 
		438.493,623.514 441.251,623.251 442.286,623.251 443.664,622.722 445.045,622.722 447.457,622.458 448.146,622.458 
		450.904,621.929 451.94,621.929 453.318,621.665 454.697,621.665 456.077,621.4 456.077,622.458 456.422,624.836 456.422,625.629 
		457.11,628.536 457.456,633.557 458.49,641.221 459.181,647.827 460.215,653.904 460.904,656.284 461.249,660.777 461.593,663.153 
		462.282,667.382 462.974,674.254 465.387,674.783 467.8,674.254 469.867,673.725 472.626,673.196 473.314,673.196 474.005,673.725 
		475.039,674.783 475.385,674.783 475.385,678.482 475.039,679.275 474.35,680.86 475.039,683.239 475.385,683.768 475.73,684.561 
		475.73,686.146 476.418,686.938 476.418,687.204 476.764,687.204 477.108,688.26 477.108,689.053 477.797,690.109 477.797,690.109 
		480.212,692.224 480.9,693.809 481.936,694.867 482.971,695.13 483.313,696.716 483.313,698.038 482.281,699.094 480.557,700.679 
		478.832,701.737 475.385,702.003 472.972,703.059 471.938,703.852 471.248,704.645 471.248,705.965 471.938,707.021 
		471.938,708.607 471.591,709.4 471.248,709.931 470.556,710.193 469.178,710.722 468.835,711.251 469.178,713.63 469.178,714.422 
		469.867,715.215 469.867,716.536 470.556,723.407 470.556,724.199 474.35,731.863 475.73,735.034 480.212,744.284 481.59,747.192 
		482.281,749.57 482.971,749.57 484.005,750.626 484.694,751.948 485.727,752.477 486.072,753.534 486.072,754.855 485.383,755.646 
		484.005,757.499 484.005,760.405 485.383,761.461 488.142,762.519 488.484,762.519 489.175,762.783 489.521,762.783 
		490.555,763.047 490.555,763.576 490.899,763.576 490.899,765.425 491.244,765.69 491.244,767.54 490.555,769.39 490.555,770.976 
		489.866,772.032 489.175,773.089 488.484,774.146 488.142,774.676 488.142,775.997 489.175,777.317 489.866,778.111 
		489.866,780.754 490.555,781.282 490.899,782.074 491.934,783.66 485.383,783.66 466.765,782.604 466.419,782.604 456.077,782.604 
		437.803,782.074 422.979,781.282 412.979,781.282 408.843,781.017 403.67,781.017 390.913,780.754 384.362,779.961 
		379.536,779.961 368.156,779.961 365.398,779.961 364.365,773.089 364.02,768.861 363.677,762.783 362.642,756.177 
		361.261,746.662 360.229,738.735 359.883,735.827 359.883,733.186 358.848,727.108 358.505,721.558 357.815,720.5 357.124,712.572 
		357.124,710.987 356.436,706.759 356.091,705.701 355.4,699.359 355.057,698.038 355.057,695.923 354.711,694.074 354.022,690.109 
		352.298,673.196 350.231,658.926 349.884,656.284 357.124,655.755 371.605,654.434 371.262,648.355 374.019,638.843 
		376.431,630.649 391.259,629.328 	"/>
</g>
<g id="New_Ashford">
	<polyline fill="#008332" stroke="#FFFFFF" stroke-linecap="round" stroke-linejoin="round" stroke-miterlimit="10" points="
		362.985,168.976 352.298,166.069 335.403,162.105 330.923,160.519 336.093,178.49 335.403,181.662 334.024,190.118 
		332.989,190.118 327.818,189.589 325.063,188.531 324.37,188.531 316.095,187.21 305.407,185.624 282.997,181.662 282.307,181.662 
		281.618,181.662 280.928,180.868 257.483,177.696 267.827,139.642 269.55,133.035 282.997,133.565 308.856,134.093 
		310.234,134.093 326.439,134.621 334.714,134.621 348.85,135.678 352.643,135.678 366.433,135.678 366.09,139.642 364.365,154.441 
		362.985,168.976 	"/>
</g>
<g id="Stockbridge">
	<polyline fill="#008332" stroke="#FFFFFF" stroke-linecap="round" stroke-linejoin="round" stroke-miterlimit="10" points="
		241.967,468.655 241.967,483.981 241.278,487.153 241.278,519.13 240.934,522.036 240.934,544.234 228.177,544.234 
		222.661,543.706 199.561,543.706 193.354,543.442 180.596,543.442 174.391,542.913 159.222,542.913 159.222,532.077 159.911,522.3 
		159.911,510.408 160.255,494.553 160.6,476.318 167.496,476.053 168.185,475.525 171.29,475.525 174.047,475.26 174.391,469.711 
		174.736,466.275 174.736,462.841 175.427,459.934 175.427,457.819 175.771,455.705 175.771,453.856 177.15,452.005 
		178.528,450.154 180.596,446.984 182.321,444.342 184.045,442.756 185.77,440.113 210.249,440.113 213.007,439.849 
		213.007,440.113 229.211,440.113 229.556,439.849 241.967,439.849 241.967,448.306 241.278,448.306 241.278,448.834 
		241.967,448.834 241.967,468.655 	"/>
</g>
<g id="Savoy">
	<polyline fill="#008332" stroke="#FFFFFF" stroke-linecap="round" stroke-linejoin="round" stroke-miterlimit="10" points="
		480.557,216.015 457.456,212.316 448.146,210.202 447.457,210.202 446.769,209.938 447.457,209.41 462.974,196.46 461.249,186.153 
		460.904,184.831 458.834,173.732 458.834,172.94 476.764,173.732 477.797,156.026 478.142,153.914 478.142,147.834 
		479.177,139.642 480.9,112.687 480.9,112.422 497.106,113.48 498.484,113.48 509.174,114.537 522.963,115.065 536.066,115.331 
		535.721,116.387 536.756,117.18 538.479,118.236 539.169,118.236 539.169,119.029 538.479,119.822 538.479,120.879 
		539.169,122.201 539.169,122.464 539.857,122.464 541.236,122.464 542.961,123.523 543.651,124.051 547.443,125.372 
		548.133,126.166 548.133,127.486 547.443,128.278 548.133,128.807 548.479,129.071 549.513,129.071 550.204,130.129 
		550.892,130.657 551.236,130.657 552.27,130.922 553.65,130.922 557.441,130.393 558.822,130.129 559.854,129.071 562.269,129.071 
		562.269,128.278 561.579,128.015 561.579,126.958 562.958,126.694 562.958,126.166 563.648,126.166 563.648,125.372 
		564.683,125.108 565.027,125.108 566.406,125.372 568.129,126.166 569.854,127.486 569.854,127.75 570.545,128.278 571.234,129.6 
		572.612,130.393 573.646,131.45 573.646,131.713 575.027,131.713 575.371,130.922 575.371,130.129 575.714,129.6 575.714,129.071 
		576.405,128.807 576.749,128.807 577.784,129.071 578.818,130.129 578.818,130.393 580.196,131.45 581.576,131.45 583.3,130.657 
		583.3,128.807 582.955,128.015 582.955,126.166 584.335,124.051 585.37,123.523 586.748,122.464 586.748,122.464 587.094,122.464 
		587.094,122.201 587.784,121.408 596.747,121.408 598.471,122.201 599.506,122.201 600.538,121.408 600.538,122.464 
		596.747,135.678 596.058,137.528 595.713,139.642 588.472,165.012 584.335,179.811 581.576,190.382 581.576,190.91 
		576.405,209.938 574.336,216.015 570.545,230.815 570.545,231.343 557.098,229.229 548.822,227.907 544.341,226.851 
		536.066,225.528 531.584,224.736 530.205,224.736 516.76,222.623 499.866,219.45 498.484,218.922 480.557,216.015 	"/>
</g>
<g id="Egremont">
	<polygon fill="#008332" stroke="#FFFFFF" stroke-linecap="round" stroke-linejoin="round" stroke-miterlimit="10" points="
		39.926,641.749 40.615,641.221 40.961,638.843 41.306,638.05 42.34,635.935 42.34,635.142 43.374,632.235 47.856,619.021 
		48.547,617.965 53.372,605.281 55.442,597.88 56.131,596.56 59.235,588.104 62.683,588.367 67.854,589.16 70.612,589.16 
		76.819,589.688 79.576,590.217 83.714,590.482 91.988,591.538 96.472,592.067 103.365,592.595 104.746,592.595 108.539,593.388 
		108.539,598.146 108.884,608.715 109.229,610.037 109.229,611.886 109.917,615.851 109.229,616.378 108.539,616.644 
		108.539,622.458 110.607,621.929 111.296,623.514 111.296,624.836 111.641,628.536 112.676,638.843 113.71,643.863 113.71,646.506 
		114.055,647.299 114.055,649.94 114.4,651.263 134.743,651.263 135.432,654.17 135.777,657.076 130.258,657.076 130.603,659.719 
		125.778,661.568 115.778,664.477 116.468,666.854 116.812,670.554 117.848,675.576 117.848,676.367 118.192,678.218 
		118.192,680.068 118.881,682.18 102.332,682.18 94.747,682.18 86.128,682.18 87.163,683.768 90.608,690.109 92.678,694.074 
		84.404,697.773 76.475,690.109 71.993,686.146 67.508,681.653 63.717,678.218 62.339,676.632 61.648,676.632 58.891,674.254 
		56.131,671.348 52.683,667.646 49.582,665.27 46.479,662.626 45.79,661.833 43.374,660.777 42.34,659.984 41.996,659.984 
		34.755,657.076 35.791,654.434 38.203,647.563 38.894,644.127 	"/>
</g>
<g id="Alford">
	<polyline fill="#008332" stroke="#FFFFFF" stroke-linecap="round" stroke-linejoin="round" stroke-miterlimit="10" points="
		65.785,568.282 69.233,560.091 69.578,557.976 71.993,552.163 72.682,550.578 77.162,536.835 83.37,519.394 86.817,510.145 
		89.575,502.479 89.919,501.688 103.365,505.388 104.746,505.388 106.469,506.18 106.814,519.394 114.055,523.093 123.019,527.322 
		120.604,542.913 122.675,552.163 123.364,557.976 124.743,566.697 126.812,574.89 127.157,579.646 107.849,579.646 
		108.539,585.461 108.539,593.388 104.746,592.595 103.365,592.595 96.472,592.067 91.988,591.538 83.714,590.482 79.576,590.217 
		76.819,589.688 70.612,589.16 67.854,589.16 62.683,588.367 59.235,588.104 59.924,585.725 63.028,577.004 64.062,574.89 
		65.44,570.661 65.785,568.811 65.785,568.282 	"/>
</g>
<g id="Lenox">
	<polyline fill="#008332" stroke="#FFFFFF" stroke-linecap="round" stroke-linejoin="round" stroke-miterlimit="10" points="
		198.527,421.35 198.527,419.766 198.183,417.387 198.183,411.572 207.492,411.572 207.144,409.987 206.455,407.08 205.421,399.417 
		205.076,396.246 217.834,396.246 219.212,386.731 220.247,382.769 228.177,382.504 239.553,382.769 239.9,375.104 267.482,379.597 
		275.068,380.654 278.514,381.447 280.239,381.447 287.135,382.504 293.686,383.561 301.271,384.882 312.648,386.731 
		310.234,395.453 309.89,396.51 309.89,397.039 307.479,404.702 305.063,412.894 301.959,414.743 295.063,418.708 297.132,425.844 
		294.72,423.729 293.686,422.672 293.34,421.879 293.34,423.465 292.994,424.521 292.994,425.578 293.34,425.844 293.34,428.485 
		294.72,428.485 294.72,428.751 293.34,431.393 292.994,431.393 292.994,431.656 292.305,432.186 292.305,434.3 292.994,434.563 
		293.34,435.093 293.686,435.093 293.686,436.941 293.34,437.206 293.34,438.527 293.686,438.264 294.375,437.999 294.72,437.999 
		295.063,437.471 296.099,437.471 296.099,437.999 295.754,438.264 295.754,438.527 295.063,439.058 295.063,439.32 294.72,439.849 
		294.72,440.113 294.375,440.113 294.375,440.378 293.686,440.906 293.34,440.906 292.994,441.17 291.271,441.17 289.546,442.756 
		289.546,443.018 288.514,444.077 288.169,444.342 288.169,445.662 288.514,445.662 288.514,446.984 289.202,447.248 
		289.202,448.042 288.514,449.099 288.514,449.627 288.169,450.685 288.169,452.005 288.514,454.119 288.514,455.705 
		289.202,456.762 289.202,464.69 289.546,466.275 289.546,467.597 265.413,467.597 261.622,467.334 253.347,467.334 
		252.655,468.125 252.655,469.711 249.553,469.711 249.553,470.505 249.899,471.561 241.967,471.561 241.967,448.834 
		241.278,448.834 241.278,448.306 241.967,448.306 241.967,439.849 229.556,439.849 229.211,440.113 213.007,440.113 
		213.007,439.849 210.249,440.113 196.458,440.113 196.113,437.206 196.113,435.355 195.078,429.278 194.733,426.637 
		193.698,421.615 197.146,421.35 198.527,421.35 	"/>
</g>
<g id="Peru">
	<polyline fill="#008332" stroke="#FFFFFF" stroke-linecap="round" stroke-linejoin="round" stroke-miterlimit="10" points="
		455.731,387.524 458.49,376.424 461.249,376.954 464.006,366.912 464.352,365.855 464.352,364.799 463.66,362.42 462.974,362.42 
		462.628,362.156 460.904,361.361 459.869,360.833 459.869,360.304 460.904,359.513 461.593,359.513 462.282,360.041 
		462.282,360.833 463.66,360.833 464.006,360.304 464.352,360.304 465.041,359.513 466.076,359.249 466.419,358.454 466.765,358.19 
		467.454,358.19 467.454,357.397 466.765,356.605 466.419,356.341 466.765,356.341 466.765,355.548 466.419,355.284 
		466.076,355.284 466.076,355.02 466.419,354.492 466.419,354.226 465.387,354.226 465.387,353.962 465.041,353.434 
		464.352,352.642 464.006,352.377 464.006,352.113 463.66,352.113 463.66,351.583 462.974,351.583 462.974,351.319 462.628,351.319 
		464.352,345.507 466.076,340.748 467.454,336.785 466.076,336.785 466.419,335.464 463.66,335.464 464.006,333.878 
		465.041,330.707 465.387,329.121 470.556,312.208 471.938,312.472 476.418,299.26 509.862,304.809 541.928,310.623 548.822,311.68 
		558.822,313.531 560.89,313.531 559.854,316.966 556.063,332.557 556.063,333.614 555.028,336.785 554.683,338.899 553.65,341.276 
		548.822,361.098 548.822,361.891 548.479,362.42 548.479,363.213 545.029,376.689 544.686,378.01 542.271,386.467 540.547,393.074 
		539.857,395.188 538.479,400.473 535.721,409.723 527.102,408.138 501.24,403.381 490.555,401.266 484.005,400.21 478.142,399.417 
		475.385,408.666 454.007,404.702 450.904,404.174 451.248,403.116 453.664,393.074 454.697,391.224 455.731,387.524 	"/>
</g>
<g id="Washington">
	<polygon fill="#008332" stroke="#FFFFFF" stroke-linecap="round" stroke-linejoin="round" stroke-miterlimit="10" points="
		428.15,400.21 428.839,400.21 431.598,400.473 435.734,401.266 449.87,403.909 450.904,404.174 454.007,404.702 475.385,408.666 
		475.73,414.743 477.797,430.07 477.797,432.186 478.142,434.3 478.832,439.849 478.832,441.963 479.522,450.947 480.212,453.591 
		465.387,454.912 456.077,455.969 455.042,455.969 453.664,456.499 446.079,457.027 444.354,457.555 439.183,457.819 
		437.803,458.349 436.77,458.349 419.875,459.934 416.081,460.461 415.049,460.461 408.497,461.254 382.292,464.426 378.847,464.69 
		378.847,479.225 378.155,490.059 378.155,492.174 377.813,491.646 356.436,470.24 344.369,476.582 340.921,473.411 
		321.612,452.797 321.268,452.005 303.685,433.243 303.34,432.449 302.304,431.656 297.132,426.371 297.132,425.844 
		295.063,418.708 301.959,414.743 305.063,412.894 307.479,404.702 309.89,397.039 309.89,396.51 310.234,395.453 312.648,386.731 
		325.063,388.581 329.198,389.373 334.024,371.932 338.506,372.198 339.887,372.198 355.057,372.99 355.4,372.99 368.156,373.518 
		378.847,373.783 379.19,373.783 404.016,374.575 403.325,378.802 400.911,386.202 398.844,394.66 415.049,397.566 416.081,398.095 
			"/>
</g>
<text transform="matrix(1.2968 0 0 1 389.7129 144.5469)" fill="#FFFFFF" font-family="'Verdana'" font-size="13.2133">Adams</text>
<text transform="matrix(1.2968 0 0 1 431.2393 517.1406)" fill="#FFFFFF" font-family="'Verdana'" font-size="13.2133">Becket</text>
<text transform="matrix(1.2968 0 0 1 348.7061 208.5664)" fill="#FFFFFF" font-family="'Verdana'" font-size="13.2133">Cheshire</text>
<text transform="matrix(1.2968 0 0 1 378.8818 32.667)" fill="#FFFFFF" font-family="'Verdana'" font-size="13.2133">Clarksbu</text>
<text transform="matrix(1.2968 0 0 1 453.5938 32.667)" fill="#FFFFFF" font-family="'Verdana'" font-size="13.2133">r</text>
<text transform="matrix(1.2968 0 0 1 460.79 32.667)" fill="#FFFFFF" font-family="'Verdana'" font-size="13.2133">g</text>
<text transform="matrix(1.2968 0 0 1 491.7852 79.9805)" fill="#FFFFFF" font-family="'Verdana'" font-size="13.2133">Florida</text>
<text transform="matrix(1.2968 0 0 1 150.5586 594.5742)" fill="#FFFFFF" font-family="'Verdana'" font-size="13.2133">Great</text>
<text transform="matrix(1.2968 0 0 1 381.3945 356.7588)" fill="#FFFFFF" font-family="'Verdana'" font-size="13.2133">Hinsdale</text>
<text transform="matrix(1.2968 0 0 1 275.0205 501.9648)" fill="#FFFFFF" font-family="'Verdana'" font-size="13.2133">Lee</text>
<text transform="matrix(1.2968 0 0 1 226.9854 423.333)" fill="#FFFFFF" font-family="'Verdana'" font-size="13.2133">Lenox</text>
<text transform="matrix(1.2968 0 0 1 257.4053 622.0811)" fill="#FFFFFF" font-family="'Verdana'" font-size="13.2133">Monterey</text>
<text transform="matrix(1.2968 0 0 1 266.376 715.4932)" fill="#FFFFFF" font-family="'Verdana'" font-size="13.2133">New</text>
<text transform="matrix(1.2968 0 0 1 397.4238 72.582)" fill="#FFFFFF" font-family="'Verdana'" font-size="13.2133">North</text>
<text transform="matrix(1.2968 0 0 1 397.4248 87.376)" fill="#FFFFFF" font-family="'Verdana'" font-size="13.2133">Adams</text>
<text transform="matrix(1.2968 0 0 1 433.2803 600.6426)" fill="#FFFFFF" font-family="'Verdana'" font-size="13.2133">Otis</text>
<text transform="matrix(1.2968 0 0 1 491.7852 356.7588)" fill="#FFFFFF" font-family="'Verdana'" font-size="13.2133">Peru</text>
<text transform="matrix(1.2968 0 0 1 216.7988 336.6992)" fill="#FFFFFF" font-family="'Verdana'" font-size="13.2133">PITTSFIELD*</text>
<text transform="matrix(1.2968 0 0 1 368.1602 697.7969)" fill="#FFFFFF" font-family="'Verdana'" font-size="13.2133">Sandisfield</text>
<text transform="matrix(1.2968 0 0 1 492.6709 177.5469)" fill="#FFFFFF" font-family="'Verdana'" font-size="13.2133">Savoy</text>
<text transform="matrix(1.2968 0 0 1 124.7578 719.7764)" fill="#FFFFFF" font-family="'Verdana'" font-size="13.2133">She</text>
<text transform="matrix(1.2968 0 0 1 157.6582 719.7764)" fill="#FFFFFF" font-family="'Verdana'" font-size="13.2133">f</text>
<text transform="matrix(1.2968 0 0 1 163.1426 719.7764)" fill="#FFFFFF" font-family="'Verdana'" font-size="13.2133">field</text>
<text transform="matrix(1.2968 0 0 1 330.6797 431.8154)" fill="#FFFFFF" font-family="'Verdana'" font-size="13.2133">W</text>
<text transform="matrix(1.2968 0 0 1 346.1016 431.8154)" fill="#FFFFFF" font-family="'Verdana'" font-size="13.2133">ashington</text>
<text transform="matrix(1.2968 0 0 1 460.3926 263.6777)" fill="#FFFFFF" font-family="'Verdana'" font-size="13.2133">W</text>
<text transform="matrix(1.2968 0 0 1 476.499 263.6777)" fill="#FFFFFF" font-family="'Verdana'" font-size="13.2133">indsor</text>
<text transform="matrix(1 0 0 1 9.765625e-004 93.3848)" font-family="'MyriadPro-Regular'" font-size="22.5691"> </text>
<text transform="matrix(1 0 0 1 9.765625e-004 93.3848)" font-family="'MyriadPro-Regular'" font-size="22.5691"> </text>
<text transform="matrix(1 0 0 1 9.765625e-004 93.3848)" font-family="'MyriadPro-Regular'" font-size="22.5691"> </text>
<text transform="matrix(1 0 0 1 9.765625e-004 93.3848)" font-family="'MyriadPro-Regular'" font-size="22.5691"> </text>
<text transform="matrix(1 0 0 1 9.765625e-004 93.3848)" font-family="'MyriadPro-Regular'" font-size="22.5691"> </text>
<text transform="matrix(0.2928 -0.7469 0.9745 0.2245 32.4766 744.9209)" fill="#FFFFFF" font-family="'Verdana'" font-size="16.9423">Mount</text>
<text transform="matrix(0.2928 -0.7469 0.9745 0.2245 42.2344 765.9316)" fill="#FFFFFF" font-family="'Verdana'" font-size="16.9423">W</text>
<text transform="matrix(0.2928 -0.7469 0.9745 0.2245 46.7021 754.5459)" fill="#FFFFFF" font-family="'Verdana'" font-size="16.9423">ashington</text>
<text transform="matrix(0.2627 -0.7508 0.9795 0.2012 66.5488 661.4404)" fill="#FFFFFF" font-family="'Verdana'" font-size="16.9981">Egremont</text>
<text transform="matrix(0.3208 -0.7429 0.9693 0.2459 188.623 534.0742)" fill="#FFFFFF" font-family="'Verdana'" font-size="16.8841">Stockbridge</text>
<text transform="matrix(0.9824 0.5044 -0.658 0.753 288.7388 554.623)" fill="#FFFFFF" font-family="'Verdana'" font-size="14.5765">T</text>
<text transform="matrix(0.9824 0.5044 -0.658 0.753 296.4717 558.5957)" fill="#FFFFFF" font-family="'Verdana'" font-size="14.5765">yringham</text>
<text transform="matrix(1 0 0 1 9.765625e-004 93.3848)" font-family="'MyriadPro-Regular'" font-size="22.5691"> </text>
<text transform="matrix(1.2968 0 0 1 236.7979 731.6406)" fill="#FFFFFF" font-family="'Verdana'" font-size="13.2133">Marlborough</text>
<text transform="matrix(1.2968 0 0 1 133.3213 611.3867)" fill="#FFFFFF" font-family="'Verdana'" font-size="13.2133">Barrington</text>
<text transform="matrix(1 0 0 1 9.765625e-004 93.3848)" font-family="'MyriadPro-Regular'" font-size="22.5691"> </text>
<text transform="matrix(1 0 0 1 9.765625e-004 93.3848)" font-family="'MyriadPro-Regular'" font-size="22.5691"> </text>
<g>
	<path fill="#FFFFFF" d="M97.161,566.168l-0.344,1.32l-3.794,0.266l-1.723,3.964l3.103,1.849l-0.344,0.793l-10.687-6.078
		l0.689-1.585L97.161,566.168z M91.644,567.488l-6.549,0.266l5.171,2.905L91.644,567.488z"/>
	<path fill="#FFFFFF" d="M98.541,563.525l-0.344,1.058l-12.413-2.643l0.345-1.057L98.541,563.525z"/>
	<path fill="#FFFFFF" d="M89.575,555.07L89.575,555.07c0,0.265-0.345,0.265-0.345,0.526c0,0.267-0.344,0.267-0.344,0.529
		c-0.345,0.529-0.345,0.793,0,1.057c0,0.266,0.689,0.529,1.378,0.529h0.345l1.034-2.115l1.034,0.267l-1.034,2.113l7.586,1.588
		l-0.345,1.056l-7.586-1.586l-0.344,0.793l-1.034-0.265l0.344-0.791H89.92c-1.034-0.267-1.724-0.529-2.413-1.06
		c-0.344-0.529-0.689-1.322,0-1.85c0-0.267,0.345-0.528,0.345-0.528c0-0.265,0.344-0.265,0.344-0.528L89.575,555.07z"/>
	<path fill="#FFFFFF" d="M98.541,549.784c1.379,0.266,2.757,0.794,3.102,1.85c0.345,0.792,0.69,1.585,0.69,2.644
		c-0.345,0.792-1.035,1.85-2.068,2.113c-1.034,0.267-2.415,0.267-3.792,0.267c-1.379,0-2.76-0.793-3.104-1.851
		c-0.345-0.793-0.689-1.586-0.689-2.643c0.344-0.793,1.033-1.852,2.068-2.114C95.782,549.52,97.161,549.52,98.541,549.784z
		 M98.194,550.841c-1.034-0.263-2.068-0.263-2.757-0.263c-0.69,0.263-1.379,0.79-1.379,1.318c-0.345,0.528,0,1.059,0.344,1.586
		c0.345,0.527,1.379,0.793,2.415,1.056c1.034,0.266,2.068,0.266,2.757,0c0.689,0,1.378-0.789,1.378-1.319
		c0-0.527,0-1.056-0.345-1.585C100.264,551.896,99.23,551.369,98.194,550.841z"/>
	<path fill="#FFFFFF" d="M98.194,543.177L98.194,543.177c-0.345,0.267-0.345,0.267-0.345,0.529s-0.344,0.264-0.344,0.528
		c-0.345,0.265-0.345,0.793,0,1.058c0,0.265,0,0.793,0.689,1.057l6.207,1.32l-0.345,1.058l-9.309-2.112l0.345-1.059l1.379,0.265
		c-0.345-0.529-0.69-1.059-0.69-1.586c0-0.529,0-0.791,0-1.059c0-0.265,0.345-0.263,0.345-0.526c0-0.265,0-0.266,0.345-0.266
		L98.194,543.177z"/>
	<path fill="#FFFFFF" d="M107.849,537.892l-0.344,1.06l-1.034-0.266c0,0.529,0.344,0.793,0.689,1.32c0,0.529,0,0.793,0,1.322
		c-0.345,0.792-1.034,1.585-2.067,1.585c-1.034,0.263-2.412,0.263-3.793,0c-0.689-0.265-1.378-0.265-2.068-0.792
		c-0.344-0.264-0.689-0.792-1.378-0.792c-0.345-0.528-0.345-0.793-0.689-1.321c0-0.527,0-0.792,0-1.319
		c0.344-0.266,0.344-0.528,0.344-0.793c0.345-0.265,0.689-0.528,0.689-0.791l-4.138-0.792l0.344-1.06L107.849,537.892z
		 M105.435,538.684l-5.171-1.318c-0.345,0.263-0.689,0.526-0.689,0.526c-0.344,0.266-0.344,0.528-0.344,0.792
		c-0.345,0.529,0,1.321,0.344,1.851c0.345,0.528,1.378,0.793,2.413,1.057c1.034,0.266,1.723,0.266,2.414,0.266
		c0.689,0,1.379-0.794,1.379-1.321c0.344-0.264,0.344-0.528,0-1.057C105.78,539.213,105.435,538.95,105.435,538.684z"/>
</g>
<text transform="matrix(0.2939 -0.7468 0.9743 0.2253 161.8018 436.0488)" fill="#FFFFFF" font-family="'Verdana'" font-size="16.9402">Richmond</text>
<text transform="matrix(0.2939 -0.7468 0.9743 0.2253 207.4883 260.9619)" fill="#FFFFFF" font-family="'Verdana'" font-size="16.9402">Hancock</text>
<text transform="matrix(1.2968 0 0 1 247.373 93.2871)" fill="#FFFFFF" font-family="'Verdana'" font-size="13.2133">Williamstown</text>
<text transform="matrix(0.2838 -0.7481 0.9761 0.2175 120.9258 496.2275)" fill="#FFFFFF" font-family="'Verdana'" font-size="16.9592">West</text>
<text transform="matrix(0.2838 -0.7481 0.9761 0.2175 132.4067 522.7256)" fill="#FFFFFF" font-family="'Verdana'" font-size="16.9592">Stockbridge</text>
<text transform="matrix(1.2597 0.1996 -0.2603 0.9655 236.7988 263.1875)" fill="#FFFFFF" font-family="'Verdana'" font-size="13.402">Lanesborough</text>
<text transform="matrix(1.0234 -0.4678 0.6141 0.7893 282.2637 159.0625)" fill="#FFFFFF" font-family="'Verdana'" font-size="14.3805">New</text>
<text transform="matrix(1.0234 -0.4678 0.6141 0.7893 280.4941 178.3335)" fill="#FFFFFF" font-family="'Verdana'" font-size="14.3805">Ashford</text>
<text transform="matrix(1.2968 0 0 1 356.7783 311.0039)" fill="#FFFFFF" font-family="'Verdana'" font-size="13.2133">Dalton</text>
</svg>
